<svg width="197" height="50" viewBox="0 0 197 50" fill="none" xmlns="http://www.w3.org/2000/svg">
<g clip-path="url(#clip0_1303_3098)">
<path d="M3.96558 9.10675V12.5973H0V17.1489H3.96558V35.4463C3.96558 36.8345 5.40218 37.9468 7.20859 37.9468C9.01501 37.9468 10.4857 36.843 10.4857 35.4548V17.1574H15.7571V12.6058H10.4857V9.10675C10.4857 4.89652 13.7856 4.11991 18.3031 5.1241V0.572508C11.9423 -0.847021 3.96558 -0.187039 3.96558 9.10675ZM24.2771 17.1574H24.1405V12.6058H18.8635V35.4605C18.8635 36.8487 20.2859 37.961 22.1065 37.961C23.9272 37.961 25.3751 36.8487 25.3751 35.4605V23.9535C25.3751 18.5257 28.9112 17.146 33.1925 17.146V12.0255C29.3208 12.0055 25.6938 13.2828 24.2771 17.1574ZM69.8499 12.0368C63.563 12.0368 58.4709 15.1518 58.4709 21.2737C58.4709 24.5338 59.9189 26.9405 62.226 28.4795C62.0553 28.5904 61.8903 28.7042 61.7282 28.8237C58.8692 30.9373 58.562 34.5815 61.182 36.5699C59.899 37.7078 58.0812 39.7447 58.0812 42.5837C58.0812 47.0898 62.2914 50 69.8471 50C77.4027 50 83.1719 46.4583 83.1719 41.0049C83.1719 35.5515 79.3827 33.4094 72.47 33.4094H67.9496C64.7834 33.4094 65.0537 31.2218 66.0977 30.2802C66.1518 30.2318 66.2087 30.1863 66.2712 30.138C67.4479 30.3853 68.6476 30.5055 69.8499 30.4964C76.1397 30.4964 81.2289 27.3672 81.2289 21.2652C81.2432 20.0017 80.9942 18.749 80.4978 17.5869C81.4607 17.3236 82.4526 17.1812 83.4507 17.1631V12.6115C80.6543 12.6115 78.8507 12.7992 76.939 13.7295C75.0018 12.5887 72.5354 12.0226 69.8499 12.0226V12.0368ZM66.3936 37.9696H72.4643C74.9563 37.9696 76.6546 38.7433 76.6546 41.0049C76.6546 44.0431 74.0488 45.4427 69.8272 45.4427C63.3468 45.4285 63.7337 40.1031 66.3936 37.9553V37.9696ZM69.8499 25.9448C67.1616 25.9448 64.9769 24.9008 64.9769 21.2709C64.9769 17.641 67.1616 16.597 69.8499 16.597C72.5382 16.597 74.7258 17.6381 74.7258 21.2709C74.7258 24.9036 72.5439 25.9448 69.8499 25.9448ZM45.0238 12.0226C37.9575 12.0226 33.6448 16.395 33.6448 24.989C33.6448 33.583 37.9632 37.9553 45.0238 37.9553C52.0845 37.9553 56.4028 33.583 56.4028 24.989C56.4028 16.395 52.093 12.0226 45.0238 12.0226ZM45.0238 33.3952C42.3327 33.3952 40.1508 32.3028 40.1508 24.989C40.1508 17.6751 42.3469 16.5884 45.0238 16.5884C47.7007 16.5884 49.8969 17.678 49.8969 24.989C49.8969 32.3 47.715 33.3952 45.0238 33.3952Z" fill="black"/>
<path d="M97.2883 13.2998C98.5343 13.2998 99.492 13.5369 100.161 14.011C100.494 14.2502 100.761 14.5697 100.936 14.9399C101.112 15.31 101.191 15.7186 101.166 16.1275C101.176 16.5819 101.079 17.0323 100.881 17.4418C100.701 17.8019 100.427 18.1066 100.088 18.3236C99.7025 18.5662 99.2748 18.7333 98.8273 18.8158C98.2754 18.9236 97.714 18.9751 97.1518 18.9694H96.1646V22.2608H94.9243V13.516C95.3084 13.4256 95.6996 13.3685 96.0935 13.3453C96.5344 13.314 96.9299 13.2998 97.2883 13.2998ZM97.3907 14.3865C96.8616 14.3865 96.4548 14.4007 96.1732 14.4263V17.9083H97.1091C97.4899 17.9101 97.8704 17.8826 98.247 17.8258C98.5456 17.7804 98.8343 17.6842 99.1004 17.5413C99.3301 17.4141 99.5194 17.2248 99.6466 16.9951C99.7839 16.7221 99.8495 16.4186 99.8372 16.1133C99.8501 15.8163 99.7823 15.5213 99.6409 15.2598C99.5088 15.0395 99.3228 14.8564 99.1004 14.7279C98.8579 14.5866 98.592 14.4902 98.3153 14.4434C98.0092 14.3989 97.6999 14.3799 97.3907 14.3865V14.3865Z" fill="black"/>
<path d="M104.417 15.4362C104.828 15.4255 105.238 15.4891 105.626 15.624C105.93 15.7299 106.203 15.9098 106.42 16.1474C106.624 16.3797 106.771 16.6563 106.849 16.9553C106.938 17.2913 106.981 17.6377 106.978 17.9851V22.1441L106.548 22.2153C106.366 22.2465 106.158 22.2722 105.928 22.2978C105.697 22.3234 105.447 22.349 105.18 22.3689C104.912 22.3888 104.645 22.4002 104.38 22.4002C104.031 22.4036 103.682 22.3654 103.342 22.2864C103.048 22.2188 102.77 22.0952 102.523 21.9222C102.29 21.7519 102.105 21.5247 101.985 21.2623C101.85 20.9512 101.785 20.6142 101.794 20.2751C101.786 19.9456 101.862 19.6193 102.016 19.3278C102.164 19.0678 102.373 18.848 102.625 18.6878C102.901 18.5176 103.204 18.3964 103.521 18.3293C103.874 18.2517 104.235 18.2136 104.596 18.2155C104.721 18.2153 104.845 18.222 104.969 18.2355C105.091 18.2461 105.213 18.2632 105.333 18.2867L105.635 18.3436L105.814 18.3805V18.0477C105.813 17.8562 105.791 17.6655 105.749 17.4788C105.71 17.2935 105.631 17.1188 105.518 16.9667C105.4 16.8099 105.243 16.6865 105.063 16.6083C104.827 16.5084 104.571 16.4618 104.315 16.4717C103.97 16.4676 103.625 16.4962 103.285 16.5571C103.06 16.5937 102.839 16.6508 102.625 16.7277L102.486 15.7435C102.734 15.6501 102.991 15.5834 103.254 15.5443C103.638 15.4747 104.027 15.4386 104.417 15.4362V15.4362ZM104.52 21.4102C104.804 21.4102 105.052 21.4102 105.268 21.3931C105.451 21.3842 105.634 21.3604 105.814 21.322V19.3307C105.68 19.2758 105.539 19.2394 105.396 19.2226C105.165 19.1905 104.932 19.1752 104.699 19.1771C104.509 19.1783 104.319 19.1916 104.13 19.2169C103.939 19.2401 103.752 19.2939 103.578 19.3762C103.417 19.4553 103.275 19.5689 103.163 19.709C103.044 19.8739 102.985 20.075 102.998 20.278C102.98 20.4495 103.008 20.6228 103.08 20.7795C103.152 20.9362 103.265 21.0706 103.407 21.1684C103.751 21.3419 104.135 21.4196 104.52 21.3931V21.4102Z" fill="black"/>
<path d="M111.279 15.4616C111.381 15.4616 111.498 15.4616 111.632 15.4816C111.765 15.5015 111.893 15.5128 112.021 15.5328L112.374 15.5982C112.454 15.6122 112.533 15.6312 112.61 15.6551L112.405 16.6906C112.252 16.6424 112.096 16.6026 111.939 16.5711C111.662 16.518 111.381 16.4941 111.1 16.5C110.878 16.4995 110.656 16.5234 110.44 16.5711L110.013 16.665V22.2606H108.821V15.8855C109.164 15.7666 109.515 15.6716 109.871 15.601C110.334 15.5046 110.806 15.4578 111.279 15.4616V15.4616Z" fill="black"/>
<path d="M114.749 15.6044H117.27V16.6029H114.749V19.6866C114.744 19.9637 114.769 20.2404 114.826 20.5116C114.861 20.6983 114.94 20.8738 115.056 21.0237C115.156 21.1463 115.29 21.2372 115.44 21.2854C115.614 21.3395 115.796 21.3655 115.978 21.3622C116.267 21.3709 116.556 21.3305 116.832 21.2427L117.287 21.0692L117.517 22.0535C117.315 22.1448 117.106 22.22 116.891 22.2782C116.558 22.3727 116.213 22.4178 115.867 22.4119C115.486 22.4237 115.106 22.3659 114.746 22.2412C114.466 22.1358 114.22 21.9558 114.035 21.7206C113.846 21.4684 113.717 21.1766 113.657 20.8672C113.58 20.4813 113.544 20.0885 113.549 19.6952V13.7468L114.741 13.542L114.749 15.6044Z" fill="black"/>
<path d="M127.358 18.9332C127.363 19.4171 127.285 19.8982 127.127 20.3556C126.986 20.7611 126.766 21.135 126.481 21.4565C126.205 21.7618 125.867 22.0044 125.489 22.1677C124.685 22.4977 123.783 22.4977 122.979 22.1677C122.601 22.0044 122.263 21.7618 121.987 21.4565C121.702 21.135 121.482 20.7611 121.341 20.3556C121.033 19.4265 121.033 18.4229 121.341 17.4938C121.484 17.0901 121.704 16.7181 121.989 16.3985C122.266 16.0932 122.604 15.8507 122.982 15.6874C123.38 15.5221 123.806 15.437 124.237 15.437C124.667 15.437 125.094 15.5221 125.491 15.6874C125.869 15.8507 126.208 16.0932 126.484 16.3985C126.77 16.7217 126.989 17.0976 127.13 17.5051C127.287 17.9646 127.364 18.4477 127.358 18.9332V18.9332ZM126.114 18.9332C126.148 18.2984 125.971 17.6703 125.611 17.1467C125.445 16.9408 125.236 16.7746 124.997 16.6604C124.759 16.5462 124.498 16.487 124.234 16.487C123.97 16.487 123.709 16.5462 123.471 16.6604C123.232 16.7746 123.023 16.9408 122.857 17.1467C122.497 17.6703 122.32 18.2984 122.354 18.9332C122.32 19.568 122.497 20.1961 122.857 20.7197C123.023 20.9247 123.233 21.09 123.471 21.2036C123.71 21.3172 123.97 21.3761 124.234 21.3761C124.498 21.3761 124.758 21.3172 124.997 21.2036C125.235 21.09 125.445 20.9247 125.611 20.7197C125.971 20.1961 126.148 19.568 126.114 18.9332V18.9332Z" fill="black"/>
<path d="M131.505 12.3271C131.807 12.3228 132.109 12.3486 132.407 12.4039C132.588 12.4352 132.766 12.4818 132.939 12.5433L132.72 13.5674C132.581 13.5055 132.436 13.4587 132.287 13.428C132.06 13.3761 131.826 13.3522 131.593 13.3569C131.038 13.3569 130.651 13.5077 130.43 13.8121C130.191 14.1727 130.074 14.6005 130.097 15.0325V15.6014H132.657V16.5999H130.097V22.261H128.905V15.0012C128.856 14.2819 129.081 13.5709 129.533 13.0099C129.953 12.5566 130.61 12.329 131.505 12.3271Z" fill="black"/>
<path d="M98.836 38.0975C98.2247 38.107 97.617 38.0028 97.0438 37.7902C96.5323 37.5979 96.0726 37.2892 95.7011 36.8885C95.3174 36.4695 95.0265 35.9741 94.8477 35.4348C94.6448 34.7978 94.5487 34.1317 94.5632 33.4634C94.5509 32.7905 94.6667 32.1215 94.9046 31.492C95.1107 30.9498 95.4264 30.4559 95.832 30.0412C96.2227 29.6441 96.6942 29.3356 97.2145 29.1365C97.7593 28.9284 98.3382 28.8242 98.9214 28.8293C99.2561 28.8265 99.5904 28.855 99.9199 28.9146C100.184 28.9608 100.445 29.0226 100.702 29.0995C100.891 29.1545 101.075 29.2269 101.251 29.3157L101.558 29.4836L101.086 30.8007C100.81 30.6437 100.516 30.5213 100.21 30.4366C99.8082 30.3189 99.3913 30.2604 98.9726 30.263C98.6048 30.2609 98.2399 30.3285 97.8972 30.4622C97.572 30.5943 97.2804 30.7974 97.0438 31.0567C96.787 31.3465 96.5933 31.6866 96.4749 32.0552C96.3308 32.5065 96.2616 32.9784 96.27 33.452C96.2663 33.8876 96.3199 34.3219 96.4294 34.7435C96.5254 35.1124 96.6936 35.4585 96.9243 35.7619C97.1494 36.051 97.4426 36.2797 97.7778 36.4276C98.1652 36.5952 98.5847 36.6758 99.0067 36.6637C99.4773 36.6768 99.9471 36.6193 100.401 36.493C100.687 36.4059 100.965 36.2966 101.234 36.1659L101.669 37.483C101.538 37.5659 101.397 37.6345 101.251 37.6878C101.049 37.7663 100.841 37.8328 100.631 37.887C100.367 37.9574 100.098 38.0087 99.826 38.0406C99.4977 38.0819 99.1669 38.1009 98.836 38.0975V38.0975Z" fill="black"/>
<path d="M105.205 31.0458C105.645 31.034 106.083 31.0985 106.5 31.2364C106.813 31.3375 107.096 31.5171 107.321 31.758C107.546 31.9989 107.706 32.2933 107.786 32.6133C107.879 32.9659 107.924 33.3295 107.919 33.6943V37.7537C107.68 37.8049 107.319 37.8675 106.838 37.9386C106.297 38.0156 105.752 38.0517 105.205 38.0467C104.835 38.0505 104.466 38.0123 104.104 37.9329C103.798 37.8682 103.507 37.7413 103.251 37.5603C103.014 37.3879 102.825 37.159 102.699 36.8946C102.559 36.5769 102.492 36.2318 102.503 35.8847C102.492 35.5467 102.568 35.2117 102.725 34.9118C102.872 34.6501 103.081 34.4284 103.334 34.2661C103.605 34.0915 103.907 33.9699 104.224 33.9076C104.571 33.8325 104.925 33.7953 105.279 33.7967C105.459 33.7972 105.639 33.8086 105.817 33.8308C106.02 33.8538 106.222 33.89 106.42 33.9389V33.6829C106.421 33.5101 106.399 33.3379 106.355 33.1708C106.315 33.0069 106.236 32.8555 106.123 32.7303C106.01 32.6051 105.868 32.5101 105.709 32.4539C105.497 32.3798 105.273 32.3451 105.049 32.3515C104.719 32.3493 104.39 32.375 104.065 32.4283C103.816 32.4669 103.572 32.5268 103.334 32.6076L103.143 31.353C103.422 31.2642 103.707 31.1958 103.996 31.1482C104.395 31.0777 104.8 31.0434 105.205 31.0458V31.0458ZM105.333 36.8178C105.698 36.8266 106.063 36.8009 106.423 36.741V35.0341C106.3 35.0008 106.176 34.9751 106.05 34.9573C105.872 34.9311 105.692 34.9187 105.513 34.9203C105.339 34.92 105.166 34.9324 104.995 34.9573C104.831 34.9798 104.672 35.0277 104.523 35.0996C104.386 35.1626 104.268 35.2607 104.181 35.384C104.092 35.5227 104.047 35.6856 104.053 35.8506C104.037 35.9971 104.061 36.1453 104.122 36.2795C104.183 36.4137 104.279 36.5289 104.4 36.613C104.688 36.7668 105.013 36.8377 105.339 36.8178H105.333Z" fill="black"/>
<path d="M115.85 34.5648C115.855 35.0414 115.787 35.5161 115.651 35.9729C115.533 36.3724 115.34 36.746 115.082 37.0738C114.833 37.3825 114.514 37.6281 114.152 37.7907C113.756 37.9668 113.326 38.0542 112.892 38.0467C112.598 38.0499 112.305 38.0116 112.021 37.9329C111.796 37.8714 111.577 37.7856 111.37 37.6769V40.2742H109.82V31.4298C110.135 31.3445 110.525 31.262 110.986 31.1852C111.468 31.1072 111.957 31.0691 112.445 31.0714C112.93 31.0628 113.413 31.1449 113.868 31.3132C114.271 31.4658 114.636 31.7047 114.937 32.013C115.239 32.3273 115.47 32.7027 115.614 33.1139C115.779 33.5796 115.859 34.071 115.85 34.5648V34.5648ZM114.263 34.5904C114.298 34.0146 114.132 33.4444 113.794 32.9774C113.485 32.5981 112.984 32.4084 112.292 32.4084C112.147 32.4084 111.993 32.4084 111.837 32.4284C111.679 32.4401 111.522 32.4678 111.37 32.5109V36.337C111.539 36.4476 111.722 36.5365 111.913 36.6016C112.146 36.6824 112.39 36.7229 112.636 36.7211C112.873 36.7406 113.112 36.6985 113.328 36.5988C113.544 36.4991 113.731 36.3453 113.87 36.1521C114.156 35.6832 114.293 35.1387 114.263 34.5904V34.5904Z" fill="black"/>
<path d="M122.979 37.227C122.979 38.2947 122.708 39.0761 122.166 39.5711C121.623 40.066 120.794 40.3135 119.677 40.3135C119.275 40.3142 118.874 40.2799 118.479 40.2111C118.12 40.1452 117.767 40.05 117.424 39.9266L117.708 38.6095C117.999 38.7278 118.301 38.8173 118.61 38.8769C118.971 38.9474 119.338 38.9817 119.705 38.9794C120.329 38.9794 120.773 38.8513 121.036 38.5953C121.177 38.443 121.285 38.2635 121.354 38.0677C121.422 37.872 121.45 37.6642 121.435 37.4574V37.2014C121.238 37.2943 121.035 37.3713 120.826 37.4318C120.548 37.5109 120.261 37.5492 119.972 37.5456C119.573 37.5503 119.175 37.4808 118.8 37.3408C118.457 37.2113 118.147 37.0062 117.893 36.7405C117.627 36.4559 117.427 36.1172 117.304 35.7477C117.155 35.3043 117.084 34.8385 117.094 34.3709C117.089 33.9138 117.164 33.4594 117.315 33.0281C117.455 32.635 117.678 32.2768 117.97 31.9784C118.266 31.6807 118.622 31.449 119.014 31.2985C119.459 31.1305 119.932 31.0484 120.408 31.0567C120.884 31.055 121.36 31.0931 121.83 31.1705C122.282 31.2473 122.666 31.3298 122.982 31.4152L122.979 37.227ZM118.667 34.3822C118.667 35.0403 118.809 35.5211 119.093 35.8245C119.236 35.9738 119.409 36.0913 119.6 36.1693C119.791 36.2472 119.997 36.2839 120.203 36.2768C120.439 36.2784 120.674 36.2438 120.9 36.1744C121.088 36.12 121.267 36.0386 121.432 35.9326V32.462C121.297 32.4323 121.16 32.4095 121.022 32.3938C120.818 32.3685 120.613 32.3571 120.408 32.3596C120.163 32.3467 119.918 32.3914 119.693 32.4902C119.468 32.589 119.27 32.7391 119.113 32.9286C118.802 33.3483 118.644 33.8627 118.667 34.3851V34.3822Z" fill="black"/>
<path d="M124.581 34.5906C124.568 34.0681 124.654 33.548 124.834 33.0573C124.988 32.6445 125.225 32.2679 125.531 31.9507C125.813 31.6603 126.153 31.4334 126.529 31.285C126.895 31.1365 127.287 31.0602 127.682 31.0603C128.081 31.0371 128.482 31.1015 128.854 31.2489C129.226 31.3963 129.562 31.6232 129.838 31.9137C130.356 32.4826 130.614 33.3361 130.614 34.474C130.614 34.5593 130.614 34.6541 130.614 34.7584C130.614 34.8637 130.614 34.9604 130.597 35.0429H126.18C126.187 35.2784 126.241 35.5101 126.338 35.7245C126.436 35.9389 126.576 36.1318 126.748 36.2917C127.168 36.6116 127.69 36.7683 128.216 36.7327C128.562 36.7355 128.908 36.7011 129.246 36.6303C129.498 36.5796 129.744 36.5063 129.983 36.4112L130.188 37.68C130.074 37.7337 129.956 37.7784 129.835 37.8137C129.667 37.8664 129.496 37.9091 129.323 37.9417C129.13 37.9815 128.925 38.0128 128.703 38.0384C128.477 38.0637 128.25 38.0761 128.023 38.0754C127.499 38.0878 126.977 37.9989 126.487 37.8137C126.077 37.6571 125.709 37.4079 125.411 37.0854C125.127 36.767 124.914 36.3917 124.786 35.9845C124.645 35.5335 124.576 35.0631 124.581 34.5906V34.5906ZM129.073 33.9107C129.074 33.7054 129.045 33.5011 128.984 33.3048C128.93 33.1221 128.84 32.952 128.72 32.8041C128.605 32.6645 128.461 32.551 128.299 32.4713C128.106 32.386 127.898 32.3419 127.687 32.3419C127.477 32.3419 127.268 32.386 127.076 32.4713C126.902 32.5557 126.747 32.6748 126.62 32.8212C126.497 32.97 126.401 33.1395 126.336 33.3218C126.269 33.5058 126.222 33.6966 126.197 33.8908L129.073 33.9107Z" fill="black"/>
<path d="M136.076 34.3849C136.111 33.8656 136.021 33.3455 135.812 32.8687C135.709 32.7071 135.562 32.5778 135.389 32.4953C135.216 32.4128 135.024 32.3805 134.833 32.4021C134.643 32.4026 134.453 32.4149 134.264 32.4391C134.06 32.4647 133.906 32.4875 133.804 32.5046V37.9096H132.256V31.4292C132.641 31.3251 133.031 31.2435 133.425 31.1846C133.932 31.1065 134.443 31.0685 134.956 31.0708C135.343 31.0574 135.729 31.1182 136.094 31.25C136.369 31.3559 136.619 31.5166 136.83 31.7222C136.945 31.642 137.064 31.5698 137.189 31.506C137.345 31.4237 137.508 31.3534 137.675 31.2955C137.861 31.2284 138.051 31.1742 138.244 31.1334C138.444 31.0913 138.648 31.0704 138.853 31.0708C139.293 31.0553 139.73 31.1319 140.139 31.2955C140.456 31.4273 140.73 31.6438 140.932 31.9214C141.134 32.2131 141.27 32.545 141.331 32.8943C141.405 33.3064 141.441 33.7244 141.439 34.1431V37.9067H139.891V34.3849C139.925 33.8665 139.838 33.3472 139.635 32.8687C139.465 32.5586 139.135 32.4021 138.648 32.4021C138.408 32.4003 138.17 32.4417 137.945 32.5245C137.769 32.5822 137.601 32.6615 137.445 32.7606C137.515 32.9809 137.563 33.2077 137.587 33.4376C137.616 33.6888 137.633 33.9414 137.635 34.1943V37.8925H136.088L136.076 34.3849Z" fill="black"/>
<path d="M145.063 29.2528C145.069 29.3817 145.046 29.5104 144.997 29.6298C144.948 29.7492 144.873 29.8564 144.778 29.944C144.598 30.1121 144.359 30.2038 144.113 30.2001C143.862 30.2054 143.618 30.1137 143.433 29.944C143.338 29.8564 143.263 29.7492 143.214 29.6298C143.165 29.5104 143.143 29.3817 143.148 29.2528C143.142 29.1216 143.164 28.9906 143.213 28.8688C143.262 28.747 143.337 28.6373 143.433 28.5473C143.618 28.3776 143.862 28.2859 144.113 28.2912C144.359 28.2875 144.598 28.3792 144.778 28.5473C144.874 28.6373 144.949 28.747 144.998 28.8688C145.047 28.9906 145.069 29.1216 145.063 29.2528V29.2528ZM144.895 37.9065H143.348V31.2099H144.895V37.9065Z" fill="black"/>
<path d="M146.867 31.4299C147.249 31.3263 147.638 31.2446 148.03 31.1853C148.555 31.1056 149.086 31.0675 149.617 31.0715C150.085 31.0574 150.55 31.1337 150.989 31.2962C151.327 31.4261 151.627 31.6406 151.859 31.9192C152.085 32.204 152.243 32.5368 152.32 32.8921C152.414 33.3016 152.46 33.7208 152.456 34.141V37.9046H150.906V34.3856C150.911 34.0797 150.887 33.7739 150.835 33.4724C150.803 33.2536 150.724 33.0441 150.605 32.858C150.499 32.6997 150.347 32.5783 150.169 32.5109C149.954 32.4338 149.726 32.3972 149.498 32.4028C149.293 32.4029 149.087 32.4152 148.883 32.4398C148.67 32.4654 148.511 32.4882 148.411 32.5052V37.9102H146.861L146.867 31.4299Z" fill="black"/>
<path d="M156.084 29.2528C156.089 29.3817 156.067 29.5104 156.018 29.6298C155.969 29.7492 155.894 29.8564 155.799 29.944C155.619 30.1121 155.38 30.2038 155.133 30.2001C154.882 30.2054 154.639 30.1137 154.454 29.944C154.359 29.8564 154.284 29.7492 154.235 29.6298C154.186 29.5104 154.163 29.3817 154.169 29.2528C154.163 29.1216 154.185 28.9906 154.234 28.8688C154.283 28.747 154.358 28.6373 154.454 28.5473C154.639 28.3776 154.882 28.2859 155.133 28.2912C155.38 28.2875 155.619 28.3792 155.799 28.5473C155.895 28.6373 155.97 28.747 156.019 28.8688C156.068 28.9906 156.09 29.1216 156.084 29.2528V29.2528ZM155.916 37.9065H154.368V31.2099H155.916V37.9065Z" fill="black"/>
<path d="M160.962 29.0347H162.575V37.9074H160.962V29.0347Z" fill="black"/>
<path d="M164.609 31.4299C164.992 31.326 165.381 31.2443 165.773 31.1853C166.298 31.1054 166.829 31.0674 167.36 31.0715C167.827 31.0574 168.293 31.1337 168.731 31.2962C169.072 31.4268 169.373 31.6422 169.607 31.9221C169.834 32.2068 169.991 32.5397 170.068 32.895C170.162 33.3046 170.206 33.7237 170.202 34.1438V37.9074H168.643V34.3856C168.646 34.0797 168.623 33.7741 168.572 33.4724C168.537 33.2543 168.459 33.0453 168.342 32.858C168.235 32.7008 168.083 32.5798 167.906 32.5109C167.691 32.4341 167.463 32.3974 167.235 32.4028C167.03 32.4029 166.824 32.4152 166.621 32.4398C166.407 32.4654 166.248 32.4882 166.145 32.5052V37.9102H164.598L164.609 31.4299Z" fill="black"/>
<path d="M173.644 37.9075C173.216 37.0294 172.777 36.0205 172.327 34.8807C171.855 33.6794 171.444 32.4545 171.098 31.2109H172.751C172.845 31.5864 172.953 31.9904 173.078 32.4228C173.203 32.8552 173.334 33.2762 173.476 33.7143C173.619 34.1524 173.761 34.5677 173.915 34.9688C174.068 35.37 174.199 35.7398 174.33 36.0641C174.461 35.7398 174.597 35.3756 174.742 34.9688C174.887 34.5621 175.027 34.1467 175.172 33.7143C175.317 33.2819 175.456 32.8609 175.579 32.4228C175.701 31.9847 175.818 31.5864 175.912 31.2109H177.513C177.143 32.5157 176.734 33.739 176.284 34.8807C175.835 36.0224 175.396 37.0313 174.967 37.9075H173.644Z" fill="black"/>
<path d="M178.128 34.5902C178.116 34.0624 178.205 33.5373 178.389 33.0426C178.543 32.6299 178.781 32.2532 179.086 31.936C179.368 31.6456 179.708 31.4187 180.085 31.2703C180.446 31.1237 180.832 31.0474 181.223 31.0456C181.623 31.0225 182.023 31.0869 182.395 31.2343C182.767 31.3817 183.103 31.6085 183.379 31.899C183.897 32.468 184.156 33.3214 184.156 34.4593C184.156 34.5446 184.156 34.6395 184.156 34.7438C184.156 34.849 184.156 34.9458 184.139 35.0283H179.738C179.745 35.2638 179.799 35.4955 179.897 35.7099C179.994 35.9243 180.134 36.1171 180.307 36.2771C180.726 36.597 181.248 36.7537 181.775 36.718C182.12 36.7208 182.466 36.6865 182.804 36.6156C183.056 36.5649 183.303 36.4916 183.541 36.3966L183.746 37.6653C183.632 37.7191 183.514 37.7638 183.393 37.799C183.225 37.8517 183.054 37.8945 182.881 37.9271C182.688 37.9669 182.483 37.9982 182.261 38.0238C182.035 38.0491 181.808 38.0614 181.581 38.0608C181.057 38.0731 180.535 37.9842 180.045 37.799C179.635 37.6424 179.267 37.3932 178.97 37.0708C178.685 36.7524 178.472 36.3771 178.344 35.9699C178.201 35.524 178.128 35.0585 178.128 34.5902V34.5902ZM182.619 33.9103C182.621 33.705 182.591 33.5006 182.531 33.3043C182.477 33.1217 182.387 32.9516 182.267 32.8037C182.152 32.664 182.008 32.5506 181.846 32.4708C181.653 32.3855 181.445 32.3415 181.234 32.3415C181.023 32.3415 180.815 32.3855 180.622 32.4708C180.448 32.5553 180.294 32.6744 180.167 32.8207C180.044 32.9696 179.947 33.1391 179.883 33.3214C179.816 33.5054 179.769 33.6962 179.743 33.8904L182.619 33.9103Z" fill="black"/>
<path d="M185.808 31.4297C186.191 31.3259 186.58 31.2442 186.972 31.1851C187.496 31.1035 188.026 31.0636 188.556 31.0656C189.024 31.0515 189.489 31.1278 189.928 31.2903C190.268 31.421 190.57 31.6364 190.804 31.9162C191.028 32.2024 191.185 32.5347 191.265 32.8891C191.356 33.2989 191.401 33.7179 191.398 34.1379V37.9015H189.851V34.3854C189.854 34.0795 189.83 33.774 189.78 33.4723C189.745 33.2541 189.666 33.0452 189.549 32.8578C189.443 32.7006 189.291 32.5796 189.114 32.5107C188.899 32.4339 188.671 32.3973 188.443 32.4026C188.237 32.4027 188.032 32.4151 187.828 32.4396C187.615 32.4652 187.455 32.488 187.353 32.5051V37.9101H185.806L185.808 31.4297Z" fill="black"/>
<path d="M193.219 29.4435L194.769 29.1875V31.2101H197.15V32.5045H194.769V35.2297C194.736 35.6308 194.826 36.0325 195.025 36.3819C195.132 36.5056 195.266 36.6017 195.418 36.6621C195.57 36.7226 195.734 36.7455 195.896 36.7289C196.148 36.7319 196.4 36.7013 196.644 36.6379C196.819 36.5919 196.992 36.5369 197.162 36.4729L197.418 37.7018C197.189 37.7961 196.954 37.875 196.715 37.9379C196.381 38.0255 196.036 38.0666 195.691 38.0603C195.283 38.0718 194.877 38.0062 194.493 37.8668C194.194 37.7544 193.93 37.5627 193.731 37.3121C193.535 37.0501 193.4 36.7479 193.336 36.4274C193.254 36.0383 193.215 35.6415 193.219 35.244V29.4435Z" fill="black"/>
</g>
<defs>
<clipPath id="clip0_1303_3098">
<rect width="197" height="50" fill="white"/>
</clipPath>
</defs>
</svg>
