<svg width="310" height="248" viewBox="0 0 310 248" fill="none" xmlns="http://www.w3.org/2000/svg">
<g filter="url(#filter0_d_1303_3366)">
<path d="M276.225 38.8696L187.15 21.734C179.548 20.2715 172.199 25.2489 170.737 32.8513L140.724 188.864C139.262 196.467 144.239 203.815 151.841 205.278L240.917 222.413C248.519 223.876 255.868 218.898 257.33 211.296L287.343 55.2831C288.805 47.6807 283.828 40.3321 276.225 38.8696Z" fill="white"/>
</g>
<path d="M249.931 138.389L249.907 138.508C249.55 138.755 249.314 139.111 249.109 139.49C249.074 139.561 249.006 139.61 248.956 139.672C248.748 139.916 248.544 140.166 248.336 140.41C248.035 140.77 247.744 141.137 247.434 141.49C247.352 141.579 247.218 141.619 247.14 141.716C246.93 141.97 246.741 142.246 246.531 142.501C246.411 142.65 246.255 142.765 246.136 142.909C246.077 142.981 246.046 143.072 246.046 143.166C246.07 143.743 245.883 143.964 245.329 144.12C245.111 144.181 244.906 144.359 244.719 144.522C244.525 144.696 244.373 144.923 244.179 145.097C243.816 145.427 243.484 145.786 243.029 146.002C242.714 146.151 242.461 146.458 242.175 146.697C242.035 146.815 241.904 146.94 241.761 147.045C241.711 147.08 241.618 147.1 241.577 147.069C241.377 146.938 241.305 147.03 241.304 147.294C241.273 147.288 241.247 147.288 241.217 147.282C241.081 147.069 240.942 146.849 240.815 146.643C240.662 146.673 240.481 146.704 240.3 146.74C240.245 146.751 240.162 146.768 240.15 146.805C240.056 147.055 239.826 147.047 239.649 147.089C239.107 147.209 238.556 147.275 238.016 147.389C237.585 147.486 237.161 147.652 236.731 147.744C236.147 147.865 235.557 147.941 234.968 148.034C234.941 148.039 234.92 148.063 234.893 148.069C234.679 148.132 234.463 148.211 234.243 148.255C233.974 148.307 233.698 148.318 233.45 148.346C233.407 148.477 233.394 148.643 233.33 148.669C233.135 148.748 232.917 148.832 232.721 148.814C232.239 148.771 231.763 148.679 231.285 148.593C231.051 148.55 230.832 148.46 230.6 148.412C229.992 148.293 229.376 148.212 228.772 148.071C228.198 147.942 227.633 147.765 227.066 147.598C226.912 147.555 226.76 147.501 226.61 147.431C226.192 147.233 225.787 146.998 225.364 146.827C224.936 146.649 224.486 146.529 224.046 146.388C223.696 146.271 223.342 146.17 222.994 146.043C222.21 145.753 221.418 145.478 220.648 145.146C220.034 144.879 219.457 144.53 218.857 144.216C218.715 144.418 218.545 144.658 218.375 144.893C218.38 144.894 218.379 144.899 218.384 144.9C218.321 145.005 218.257 145.11 218.186 145.225C217.837 145.153 217.646 145.44 217.407 145.655C217.356 145.622 217.292 145.598 217.237 145.558C216.856 145.261 216.475 144.958 216.088 144.66C215.583 144.269 215.068 143.9 214.565 143.499C213.754 142.855 213.134 141.997 212.381 141.275C211.522 140.453 210.85 139.461 210.191 138.46C209.962 138.11 209.751 137.752 209.51 137.41C209.232 137.016 208.95 136.621 208.633 136.264C208.394 135.99 208.096 135.771 207.824 135.531C207.346 135.112 206.853 134.713 206.394 134.276C206.205 134.097 205.867 133.994 205.974 133.6C205.868 133.556 205.781 133.516 205.695 133.475L205.71 133.4C205.803 133.385 205.896 133.365 206.049 133.34C205.71 133.27 205.774 133.166 205.964 133.036C206.104 132.941 206.286 132.855 206.361 132.719C206.593 132.306 206.456 131.873 206.339 131.467C206.211 131.008 206.022 130.57 205.906 130.108C205.806 129.694 205.802 129.25 205.698 128.835C205.57 128.354 205.744 127.867 205.641 127.39C205.638 127.379 205.694 127.362 205.704 127.342C205.744 127.249 205.78 127.149 205.82 127.057L205.778 127.031C205.737 127.073 205.697 127.115 205.62 127.184C205.646 126.875 205.675 126.605 205.698 126.34C205.713 126.27 205.635 126.187 205.628 126.09C205.586 125.737 205.555 125.382 205.536 125.026C205.499 124.384 205.461 123.746 205.45 123.104C205.442 122.579 205.465 122.056 205.478 121.531C205.483 121.301 205.493 121.073 205.498 120.844C205.499 120.271 205.751 119.687 205.473 119.114C205.422 119.002 205.447 118.833 205.469 118.697C205.502 118.513 205.566 118.329 205.608 118.147C205.789 117.397 205.717 116.613 206.032 115.879C206.185 115.518 206.194 115.087 206.237 114.674C206.326 113.777 206.513 112.893 206.673 112.005C206.693 111.885 206.794 111.777 206.842 111.697C206.828 111.587 206.791 111.484 206.805 111.391C206.833 111.178 206.909 110.963 206.915 110.751C206.937 110.076 207.117 109.433 207.331 108.802C207.452 108.445 207.571 108.093 207.725 107.754C207.985 107.184 208.37 106.819 209.02 106.941C209.091 106.955 209.173 106.888 209.251 106.87C209.317 106.856 209.387 106.825 209.447 106.837C209.773 106.921 210.108 106.984 210.419 107.11C210.901 107.304 211.368 107.546 211.839 107.767C212.349 108.006 212.83 108.414 213.456 108.059C213.504 108.03 213.587 108.064 213.652 108.077C213.899 108.133 214.148 108.179 214.391 108.257C214.49 108.288 214.576 108.379 214.662 108.447C214.771 108.537 214.855 108.666 214.975 108.725C215.241 108.864 215.526 108.967 215.802 109.085C216.01 109.173 216.216 109.277 216.427 109.354C216.864 109.511 217.328 109.612 217.746 109.81C218.313 110.078 218.848 110.424 219.396 110.733C219.633 110.866 219.868 111.004 220.114 111.117C220.558 111.314 221.008 111.485 221.452 111.683C221.848 111.86 222.233 112.068 222.631 112.234C222.936 112.364 223.265 112.432 223.567 112.555C224.038 112.747 224.503 112.973 224.971 113.186C224.981 113.188 224.989 113.201 224.995 113.197C225.729 113.241 226.243 113.846 226.941 113.989C227.088 114.019 227.211 114.163 227.347 114.247C227.45 114.308 227.562 114.353 227.667 114.408C227.892 114.522 228.122 114.631 228.345 114.75C228.445 114.804 228.524 114.91 228.625 114.953C229.059 115.149 229.513 115.304 229.938 115.515C230.789 115.942 231.625 116.389 232.466 116.837C232.69 116.956 232.889 117.165 233.126 117.22C233.408 117.283 233.564 117.45 233.694 117.611C233.614 117.848 233.505 118.045 233.49 118.244C233.46 118.828 233.466 119.419 233.456 120.001C233.447 120.662 233.449 121.32 233.435 121.98C233.425 122.568 233.246 123.16 233.427 123.743C233.537 124.103 233.655 124.458 233.794 124.807C233.929 125.149 234.1 125.471 234.236 125.813C234.34 126.076 234.383 126.377 234.518 126.619C234.665 126.879 234.902 127.085 235.073 127.334C235.62 128.109 236.124 128.915 236.703 129.663C237.003 130.05 237.41 130.358 237.789 130.667C238.145 130.959 238.53 131.217 238.909 131.475C239.048 131.571 239.227 131.597 239.372 131.688C239.738 131.932 240.089 132.2 240.448 132.454C240.499 132.487 240.573 132.513 240.628 132.502C241.145 132.423 241.286 133.019 241.74 133.095C241.746 133.091 241.785 133.026 241.815 132.987C241.912 133.153 241.948 133.29 242.027 133.34C242.262 133.478 242.52 133.581 242.771 133.695C243.341 133.947 243.82 134.314 244.183 134.805C244.116 134.898 244.065 134.966 244.013 135.04C244.098 135.063 244.182 135.119 244.263 135.108C244.797 135.049 245.329 135.152 245.875 135.011C246.359 134.886 246.883 134.926 247.384 134.9C247.853 134.878 247.954 134.949 248.083 135.296C248.255 135.359 248.409 135.453 248.558 135.551C248.749 135.674 248.93 135.818 249.133 135.933C249.333 136.041 249.485 136.325 249.398 136.493C249.302 136.675 249.183 136.848 249.091 137.037C249.063 137.098 249.077 137.208 249.114 137.26C249.375 137.645 249.648 138.021 249.931 138.389V138.389Z" fill="url(#paint0_linear_1303_3366)"/>
<path d="M228.703 116.296L227.81 116.023C227.626 115.738 227.677 115.338 227.835 115.027C227.994 114.718 228.249 114.478 228.493 114.235C229.923 112.793 230.684 111.909 231.382 109.968L231.333 108.846C230.44 108.938 229.685 108.249 229.042 107.606C228.718 107.281 228.384 106.932 228.296 106.464C228.128 105.559 228.224 105.325 228.954 104.795L229.897 103.927C232.774 99.41 237.185 96 242.096 94.4961L244.353 94.3863C243.612 93.4251 243.335 92.1547 243.08 90.9337C243.003 90.5639 242.925 90.1714 243.028 89.7993C243.186 89.2307 243.759 88.8538 244.313 88.8269C244.867 88.8001 245.402 89.0673 245.834 89.4311C246.753 90.1927 247.302 91.3451 247.821 92.4628" stroke="#1D1D1B" stroke-width="0.7" stroke-miterlimit="10"/>
<path d="M257.268 95.2602C258.204 95.8903 259.133 96.5252 260.068 97.1553C260.338 97.3341 260.611 97.5193 260.81 97.7795C261.015 98.0405 261.133 98.3625 261.248 98.6781C261.407 99.1326 261.564 99.6029 261.548 100.094L261.407 101.397C261.037 101.349 260.667 101.61 260.485 101.96C260.302 102.311 260.27 102.725 260.3 103.119C260.355 103.928 260.632 104.71 261.086 105.348C261.56 106.018 262.217 106.518 262.729 107.157C263.176 107.721 263.503 108.369 263.692 109.063C263.777 109.373 263.834 109.71 263.728 110.02C263.481 110.733 262.592 110.854 261.888 110.845C261.888 110.845 261.416 110.113 261.463 110.297C262.036 112.561 262.604 114.829 263.178 117.093C263.529 118.491 263.888 119.953 263.609 121.39C263.502 121.936 263.296 122.478 262.925 122.873L261.59 123.471C260.853 122.898 260.123 122.321 259.387 121.749C259.205 121.604 259.009 121.458 258.781 121.439C258.538 121.417 258.305 121.549 258.101 121.693C257.509 122.102 257.001 122.621 256.606 123.223C256.24 123.777 255.878 124.462 255.256 124.564C254.607 124.673 254.069 124.079 253.749 123.485C253.221 122.512 253.72 121.541 253.705 120.409L253.086 120.473C252.046 121.068 250.936 121.571 249.776 121.726C246.909 122.11 244.258 120.358 241.932 118.617C241.256 118.112 241.232 117.484 240.422 117.267L239.451 117.478C239.088 118.505 238.565 119.611 237.602 119.992C236.925 120.258 236.12 120.07 235.624 119.536C235.127 119.001 234.972 118.138 235.239 117.429L235.077 116.755C234.11 115.326 232.641 115.317 231.081 116.008C230.438 116.292 229.754 116.775 229.108 116.53C228.893 116.447 228.704 116.29 228.479 116.255M247.771 92.9119C247.952 91.1061 248.526 89.336 249.445 87.7828C249.856 87.092 250.517 86.3622 251.257 86.5361C252 86.7171 252.264 87.6872 252.287 88.501C252.342 90.3384 251.86 92.2002 250.936 93.7749" stroke="#1D1D1B" stroke-width="0.7" stroke-miterlimit="10"/>
<path d="M255.371 95.8989C255.669 94.6511 256.888 93.929 257.98 93.3607C258.605 93.034 259.23 92.7128 259.856 92.3861C260.187 92.2126 260.562 91.975 260.599 91.5891C260.644 91.0869 260.082 90.7976 259.606 90.7504C258.644 90.66 257.682 90.9847 256.753 91.2999C255.527 91.7227 254.298 92.1389 253.072 92.5618C252.318 92.8226 251.541 93.0901 250.928 93.6332M238.897 111.318C239.055 110.777 239.335 110.284 239.615 109.796C240.416 108.41 241.247 107.007 242.389 105.91C243.53 104.819 245.042 104.055 246.549 104.213M252.061 104.502C252.936 104.682 254.146 105.262 254.691 105.997C255.236 106.733 255.254 107.079 255.592 107.952C256.434 110.142 257.115 112.681 256.155 114.866C256.141 114.987 256.36 114.919 256.349 114.793M244.057 102.253C243.745 102.127 243.37 102.466 243.392 102.819C243.415 103.172 243.762 103.434 244.095 103.401C244.429 103.368 244.719 103.085 244.84 102.751C244.873 102.668 244.891 102.581 244.897 102.498C244.906 102.326 244.848 102.158 244.736 102.027C244.52 101.769 244.101 101.728 243.844 101.956C243.586 102.184 243.545 102.642 243.779 102.887C244.064 103.193 244.666 102.985 244.743 102.557C244.82 102.129 244.333 101.731 243.957 101.918C243.781 102.005 243.661 102.177 243.567 102.355C243.453 102.573 243.386 102.874 243.552 103.043C243.718 103.212 244.082 102.927 243.91 102.762M255.282 102.909C254.952 102.898 254.605 103.102 254.49 103.432C254.374 103.762 254.552 104.181 254.869 104.257C255.377 104.373 255.742 103.65 255.648 103.108C255.623 102.968 255.57 102.817 255.448 102.769C255.375 102.737 255.293 102.754 255.221 102.773C254.75 102.907 254.381 103.449 254.489 103.949C254.597 104.449 255.241 104.727 255.628 104.408C256.016 104.088 255.843 103.283 255.36 103.251" stroke="#1D1D1B" stroke-width="0.7" stroke-miterlimit="10"/>
<path d="M250.938 107.637C251.289 108.394 250.554 109.946 249.756 109.85C248.697 109.722 247.418 107.937 248.052 107.005C248.487 106.353 250.618 106.936 250.938 107.637V107.637Z" fill="#1D1D1B"/>
<path d="M247.459 112.699C247.599 113.042 247.743 113.392 247.884 113.735C248.091 114.239 248.365 114.806 248.88 114.918C249.128 114.968 249.385 114.898 249.633 114.819C250.601 114.495 251.514 113.975 252.311 113.301M208.836 106.808C208.291 106.253 207.74 105.701 207.195 105.146C206.907 104.851 206.605 104.553 206.222 104.412C205.869 104.284 205.481 104.3 205.108 104.319C204.25 104.367 203.397 104.411 202.543 104.461C202.09 104.486 201.637 104.511 201.193 104.442C200.691 104.367 200.213 104.18 199.74 103.992L197.439 103.082M197.404 102.995C195.071 101.831 192.469 100.64 189.954 101.433C186.307 102.589 184.576 107.375 181.034 108.89C178.983 109.767 176.704 109.39 174.51 109.389C172.317 109.394 170.487 109.086 169.398 111.132L168.694 111.915C167.022 114.336 166.534 117.613 167.439 120.4C167.628 120.99 167.893 121.577 168.359 121.954C168.824 122.33 169.531 122.431 170.002 122.038L171.085 120.867C171.531 120.29 171.811 119.589 172.244 118.998C172.714 118.353 173.345 117.87 173.981 117.416C174.586 116.984 175.225 116.57 175.941 116.447C176.656 116.324 176.854 116.106 177.204 116.763L177.592 117.236C178.014 117.519 178.298 117.982 178.688 118.32C179.346 118.888 180.265 119.031 181.117 118.914C181.97 118.791 182.786 118.436 183.582 118.077M195.651 129.032C196.104 129.552 196.878 129.604 197.544 129.466C198.211 129.327 198.857 129.027 199.532 128.975C200.594 128.889 201.624 129.415 202.398 130.164C203.171 130.918 203.733 131.882 204.269 132.84C205.052 134.237 205.922 135.753 207.376 136.298C207.929 136.507 208.53 136.558 209.092 136.746C209.653 136.94 210.207 137.323 210.362 137.928" stroke="#1D1D1B" stroke-width="0.7" stroke-miterlimit="10"/>
<path d="M204.817 133.795C204.1 135.103 202.933 136.937 202.215 138.25C201.568 139.427 200.925 140.61 200.435 141.869C199.913 143.205 199.951 143.994 199.146 145.166L198.739 146.049C197.915 147.032 197.937 148.492 198.128 149.773C198.319 151.048 198.767 151.791 198.376 153.032L198.263 153.711C197.998 154.387 198.12 155.283 197.556 155.718C197.236 155.967 196.797 155.95 196.427 155.823C196.058 155.697 195.723 155.477 195.363 155.335C194.722 155.091 194.003 155.101 193.369 154.825C192.87 154.61 192.452 154.209 192.189 153.717C191.965 153.295 191.589 153.122 191.87 152.73L192.141 152.129C192.874 149.683 193.603 147.237 194.337 144.792C194.824 143.161 195.31 141.536 195.763 139.898C196.671 136.601 197.443 133.198 197.266 129.796M191.55 118.117C192.122 119.105 192.689 120.092 193.261 121.081C193.794 122.005 194.34 122.965 194.45 124.05L194.527 126.577C194.522 127.677 195.104 128.668 195.252 129.749C195.429 131.094 194.921 132.439 194.424 133.708C193.687 135.574 193.301 136.557 192.57 138.424L192.173 139.332C191.483 141.488 190.788 143.643 190.098 145.794C189.865 146.521 189.629 147.26 189.237 147.91C188.722 148.776 187.94 149.481 187.621 150.444C187.417 151.054 187.423 151.718 187.428 152.359L187.453 154.859L187.451 155.64C187.295 156.838 187.201 156.83 186.868 157.992C186.652 158.735 186.352 159.532 185.714 159.919C185.124 160.275 184.393 160.187 183.744 160.014C182.48 159.671 181.51 159.545 181.04 158.263L180.668 157.557C179.923 156.23 179.992 154.559 180.076 152.997C180.153 151.642 180.231 150.287 180.302 148.936C180.382 147.52 180.465 146.088 180.811 144.709C181.105 143.561 181.578 142.461 181.892 141.318C182.222 140.121 182.37 138.887 182.516 137.659L183.15 132.412C183.32 130.992 183.489 129.504 183.028 128.179C182.813 127.556 182.465 126.99 182.329 126.344C181.817 123.957 184.241 121.393 183.289 119.175M235.985 147.393C235.317 148.492 235.217 149.854 235.043 151.139C234.463 155.352 232.816 159.498 233.191 163.71L233.145 164.161C233.026 165.002 233.341 165.83 233.717 166.565C234.093 167.3 234.55 168.006 234.751 168.822C234.899 169.409 234.903 170.033 234.894 170.644C234.886 171.092 234.858 171.564 234.609 171.929L233.72 173.078C232.006 174.057 229.895 175.046 228.249 174.023C227.8 173.745 227.44 173.34 227.11 172.918C226.516 172.167 225.974 171.314 225.855 170.329C225.733 169.354 226.039 168.378 226.207 167.406C226.669 164.765 226.136 162.071 225.506 159.492C225.34 158.812 225.163 158.129 225.14 157.422C225.097 156.087 225.598 154.802 225.958 153.511C226.461 151.702 226.689 149.829 226.635 147.953M246.45 143.535C245.412 145.103 244.508 146.811 244.099 148.672C243.909 149.548 243.826 150.441 243.641 151.319C243.412 152.379 243.222 152.868 242.836 153.879L242.535 154.576C241.926 155.844 241.944 157.326 242.128 158.718C242.313 160.104 242.646 161.482 242.612 162.885C242.581 164.294 242.629 165.833 241.542 166.66L241.016 166.704C239.911 166.848 238.762 166.797 237.749 166.337C236.737 165.876 235.88 164.964 235.646 163.821C235.525 163.228 235.573 162.609 235.619 162C235.862 158.887 236.101 155.773 236.344 152.66C236.45 151.321 236.555 149.961 236.945 148.675M252.897 123.911C252.152 125.669 251.537 127.479 251.058 129.327C250.953 129.732 250.851 130.155 250.919 130.568C250.968 130.87 251.101 131.145 251.172 131.44C251.455 132.555 250.875 133.711 250.338 134.736C249.801 135.761 249.27 136.961 249.638 138.042M214.064 122.102C213.909 121.935 213.257 121.695 213.032 121.659C212.585 121.601 212.147 121.86 211.794 122.169C211.547 122.386 211.324 122.628 211.129 122.893C210.584 123.623 210.251 124.55 210.299 125.47C210.354 126.386 210.824 127.28 211.585 127.706C211.585 127.706 212.104 127.981 212.704 127.728M213.169 125.463C212.863 126.799 212.443 128.64 212.143 129.972M212.004 125.1C212.74 125.392 213.976 125.662 214.766 125.718M216.233 124.479C215.983 125.287 215.733 126.09 215.484 126.898C215.373 127.258 215.26 127.628 215.272 128.007C215.29 128.381 215.458 128.77 215.779 128.925C216.053 129.055 216.383 128.988 216.644 128.822C216.904 128.657 217.11 128.401 217.285 128.139C217.941 127.158 218.32 126.019 218.383 124.841M220.311 124.979C219.942 126.616 219.516 128.239 219.033 129.846M226.141 128.934C226.868 129.168 227.828 129.472 228.561 129.701M221.219 130.548C222.222 130.692 223.579 131.167 224.03 128.973C224.145 128.412 224.1 127.835 224.03 127.276C223.993 126.993 223.958 126.699 223.842 126.445C223.617 125.949 223.091 125.634 222.569 125.684L222.347 125.998C222.008 127.344 221.663 128.689 221.323 130.041C221.343 129.966 221.368 129.899 221.388 129.824L221.219 130.548Z" stroke="#1D1D1B" stroke-width="0.7" stroke-miterlimit="10"/>
<path d="M228.029 133.372C227.211 133.097 226.386 132.827 225.567 132.552L225.37 131.922C225.349 131.996 225.39 131.847 225.37 131.922C225.75 130.298 226.011 128.873 226.26 127.222C226.323 126.813 226.546 126.19 226.546 126.19C227.384 126.275 228.211 126.446 229.013 126.702M196.32 82.563C202.799 94.3265 210.484 105.326 219.193 115.316M196.254 82.2456C197.463 82.0047 198.652 81.6307 199.848 81.3253C203.693 80.339 207.675 80.0436 211.582 80.4521M211.894 80.5219C214.224 86.9501 217.021 93.1762 220.259 99.1279C221.912 102.17 223.684 105.146 225.034 108.356C225.949 110.543 226.659 112.81 227.155 115.129M197.965 84.3608C202.64 83.6035 207.362 83.1681 212.097 83.0577" stroke="#1D1D1B" stroke-width="0.7" stroke-miterlimit="10"/>
<path d="M191.436 74.0764C192.483 75.3419 193.365 76.7477 194.246 78.1589L195.316 79.8786C195.845 80.7216 196.367 81.5685 196.883 82.4194C196.929 82.5021 197.006 82.5907 197.095 82.5641C197.181 82.5314 197.092 82.3501 197.048 82.4364M211.787 80.9438C211.426 79.982 210.736 79.2111 210.093 78.4386C208.302 76.2733 206.775 73.8753 205.251 71.4895M191.874 73.8181C193.094 73.984 194.244 73.1862 195.451 72.8775C196.257 72.6723 197.087 72.6912 197.909 72.6629C200.307 72.576 202.673 72.0934 204.913 71.2347M233.082 136.881C232.425 136.488 231.673 137.143 231.511 137.525C231.235 138.165 231.008 138.824 230.832 139.498C230.674 140.084 230.562 140.713 230.722 141.291C230.783 141.505 230.889 141.713 231.065 141.828C231.335 142.001 231.69 141.916 231.979 141.768C232.662 141.419 233.203 140.76 233.43 139.992C233.209 140.992 233.003 141.995 232.818 142.996M232.425 139.107C233.041 139.741 233.795 140.225 234.628 140.519M222.128 139.038C222.128 139.038 221.909 140.903 222.002 140.99C222.095 141.077 222.227 141.098 222.353 141.101C223.401 141.159 224.474 140.475 224.926 139.455C225.378 138.435 225.188 137.149 224.466 136.354C223.962 135.802 223.396 135.348 222.795 135.815L222.133 139.039L222.128 139.038V139.038ZM227.393 136.708C226.664 137.435 226.345 138.499 226.119 139.526C226.062 139.778 226.011 140.049 226.094 140.29C226.234 140.685 226.677 140.837 227.07 140.901C227.437 140.962 227.807 140.993 228.179 140.994C228.41 140.996 228.645 140.983 228.86 140.886C229.249 140.713 229.505 140.288 229.589 139.85C229.674 139.413 229.618 138.963 229.544 138.532C229.463 138.077 229.359 137.606 229.085 137.247C228.811 136.887 228.628 136.624 228.034 136.587L227.393 136.708V136.708Z" stroke="#1D1D1B" stroke-width="0.7" stroke-miterlimit="10"/>
<g filter="url(#filter1_d_1303_3366)">
<path d="M117.888 15.046L27.9087 29.2974C20.2622 30.5085 15.0532 37.6877 16.2741 45.3326L41.433 202.874C42.6538 210.519 49.8423 215.734 57.4888 214.523L147.469 200.272C155.115 199.061 160.324 191.882 159.103 184.237L133.944 26.6956C132.723 19.0506 125.535 13.8349 117.888 15.046Z" fill="white"/>
</g>
<path d="M71.4167 138.598C71.1729 137.813 70.8515 137.132 70.7629 136.425C70.5636 134.799 70.5717 133.146 70.3086 131.531C70.1352 130.455 69.7577 128.072 69.6234 127.278C69.4556 126.292 70.2134 123.846 69.4322 121.004C67.282 112.832 66.6179 104.409 65.9761 95.9112C66.2416 95.8697 66.4747 95.7884 66.6966 95.8151C67.0469 95.8547 67.4049 96.0242 67.5708 95.5305C67.578 95.5141 67.6296 95.5202 67.6573 95.5053C68.5674 95.0225 71.1978 95.5661 71.8518 96.416C72.0279 96.6426 72.1059 96.9723 72.1575 97.2663C72.3379 98.2951 72.1677 99.34 72.6025 100.38C72.9646 101.235 72.9284 102.267 73.0452 103.221C73.1277 103.893 73.1346 104.508 73.7687 105.043C74.2365 105.436 74.3959 106.201 74.6693 106.809C74.8127 107.138 74.8723 107.506 75.0295 107.827C75.9924 109.804 76.9699 111.779 77.9506 113.743C78.6277 115.099 79.2878 116.473 80.043 117.785C80.2331 118.12 80.7707 118.248 81.1366 118.492C82.9707 119.736 85.0774 120.144 87.2046 120.468C87.5673 120.52 87.9588 120.391 88.332 120.331C88.7835 120.257 89.2426 120.196 89.6816 120.079C89.8554 120.033 90.0708 119.879 90.134 119.722C90.6786 118.364 91.8612 117.995 93.1079 117.559C94.0879 117.216 94.9597 116.542 95.8569 115.986C95.9481 115.93 95.9305 115.685 95.9116 115.78C96.3859 115.489 96.7022 115.277 97.0384 115.092C97.8451 114.653 98.6874 114.273 99.4593 113.779C101.03 112.771 102.822 112.422 104.555 111.85C105.476 111.547 106.264 110.828 107.116 110.3C108.737 109.294 110.385 108.323 111.977 107.266C112.669 106.806 113.217 106.13 113.906 105.655C114.582 105.188 115.347 104.857 116.071 104.463C116.877 104.018 117.795 103.696 118.451 103.091C119.18 102.412 120.074 102.18 120.897 101.778C121.916 101.281 123.397 102.092 123.836 103.071C124.092 103.642 124.703 104.045 125.139 104.539C125.775 105.261 125.643 106.233 124.911 106.841C123.492 108.024 122.131 109.273 120.693 110.434C119.733 111.208 118.677 111.868 117.684 112.598C117.429 112.784 117.258 113.077 117.024 113.294C115.615 114.622 114.213 115.954 112.779 117.255C111.992 117.974 111.122 118.602 110.34 119.329C108.7 120.859 107.187 122.544 105.443 123.94C103.902 125.175 102.485 126.54 101.012 127.843C98.8165 131.97 100.324 135.296 100.344 136.449C100.368 137.763 100.431 139.075 100.494 140.387C100.515 140.792 100.75 141.266 100.608 141.579C100.233 142.407 100.706 142.658 101.42 142.931C101.165 144.324 102.076 146.498 101.748 147.878C101.666 148.221 95.9077 152.473 95.9316 152.696C92.6731 154.358 85.6171 155.848 85.6698 156.379C85.33 156.716 84.7124 156.88 83.9529 156.811C81.6287 156.603 79.5476 155.736 77.492 154.697C76.8441 154.372 76.9435 153.844 76.8105 153.403C76.526 152.443 76.2916 152.287 75.3265 152.456C75.0032 152.513 74.3971 152.311 74.2994 152.071C73.7402 150.724 73.4383 149.262 72.7733 147.975C72.2062 146.873 72.371 145.566 71.4708 144.522C70.9407 143.918 71.0838 138.975 71.4167 138.598V138.598Z" fill="url(#paint1_linear_1303_3366)"/>
<path d="M82.5218 116.052C82.823 117.049 81.8137 119.443 81.8137 119.443C81.8137 119.443 81.6921 120.535 83.6836 121.928C85.6702 123.322 89.3689 120.224 89.3689 120.224L89.2127 118.873C88.7061 117.078 89.6438 114.823 90.0525 113.065C90.3762 111.685 91.2244 104.456 91.3784 103.031L78.5696 103.277C78.5696 103.277 77.4263 113.517 79.8038 115.296" fill="#C18145"/>
<path d="M82.7308 119.465C83.9042 120.713 85.7863 121.252 87.4401 120.805C87.9125 120.677 88.3916 120.472 88.8788 120.543M71.1761 97.1151C71.0978 96.8818 71.0835 96.6318 71.1345 96.3911C71.1855 96.1504 71.3001 95.9277 71.4663 95.7462C71.7046 95.4923 72.0312 95.3391 72.3733 95.2741C72.5782 95.2331 72.7842 95.2273 72.986 95.1969C73.5127 95.1197 74.027 94.9134 74.4569 94.6006C74.5065 94.5667 74.5504 94.5287 74.5818 94.4777C74.6569 94.3585 74.613 94.1945 74.514 94.0907C74.4158 93.9918 74.2755 93.9406 74.1387 93.9091C73.702 93.8089 73.2502 93.8528 72.8041 93.9007L72.267 93.9191C73.1973 92.9177 74.29 92.0646 75.4873 91.4052C75.7592 91.2565 76.0368 91.1119 76.2442 90.8836C76.4516 90.6553 76.6401 90.3193 76.5142 90.0333C76.4708 89.9298 76.1702 89.7704 75.9771 89.8498C74.8606 90.3081 73.6266 90.7871 72.6571 91.5076C73.3971 90.4285 74.616 89.8057 75.7338 89.1248C75.8298 89.0676 75.9249 89.0055 75.9953 88.9174C76.1595 88.7017 76.0904 88.3654 75.8918 88.1831C75.6883 88.0016 75.3919 87.9526 75.1273 87.999C74.8579 88.0463 74.6128 88.1751 74.3784 88.3071C73.2096 88.9565 72.1156 89.7442 71.1272 90.6447L71.4255 89.4663C72.0371 88.0006 72.3513 87.8344 73.4414 86.6787C73.6286 86.4792 73.8358 86.2207 73.7413 85.9696C73.6191 85.6477 73.1532 85.6688 72.8387 85.8047C72.0142 86.1715 71.4104 86.9036 70.9558 87.6802C70.4962 88.4577 70.1533 89.2955 69.6601 90.0536C69.413 90.4302 69.1274 90.7884 68.7781 91.0718L68.4554 91.391C68.0258 90.5826 68.0251 89.6283 67.8915 88.7225C67.7579 87.8168 67.4201 86.8408 66.6167 86.406C66.3324 86.2539 65.9078 86.2223 65.7441 86.4984C65.6546 86.6505 65.6824 86.8375 65.7084 87.0147L66.3325 91.0058C66.437 91.6591 66.5374 92.3182 66.543 92.9838C66.5481 93.3869 66.5139 93.7969 66.6121 94.1836C66.8465 95.1172 67.801 95.9244 67.5332 96.845M123.313 102.915C123.78 102.293 124.537 101.973 125.205 101.578C125.873 101.183 126.542 100.591 126.582 99.8165C126.605 99.4541 126.481 99.092 126.497 98.7255C126.513 98.4147 126.708 98.0573 127.014 98.0743C127.157 98.0846 127.284 98.1735 127.395 98.26C127.72 98.501 128.059 98.7598 128.224 99.1247C128.411 99.5312 128.359 100.01 128.227 100.442C128.084 100.922 127.84 101.399 127.417 101.67M128.577 99.6132C129.237 98.74 129.905 97.8553 130.76 97.1751C130.977 97.0007 131.206 96.8393 131.444 96.6966C131.531 96.646 131.628 96.5937 131.724 96.6223C131.783 96.6422 131.826 96.6852 131.859 96.7348C132.134 97.0907 132.141 97.5943 131.994 98.0192C131.846 98.444 131.556 98.803 131.278 99.1496C130.686 99.8898 130.088 100.631 129.496 101.371" stroke="#080908" stroke-width="0.7" stroke-miterlimit="10" stroke-linejoin="round"/>
<path d="M131.656 98.6544C132.475 98.3441 132.835 99.387 132.681 99.8331C132.608 100.048 132.445 100.213 132.286 100.372L131.524 101.127C131.395 101.255 131.266 101.384 131.125 101.5C130.966 101.629 130.799 101.744 130.632 101.854L129.222 102.798" stroke="#080908" stroke-width="0.7" stroke-miterlimit="10" stroke-linejoin="round"/>
<path d="M123.028 106.237C123.584 106.644 124.297 106.792 124.987 106.782C125.677 106.772 126.356 106.613 127.025 106.455L128.485 106.108C128.911 106.008 129.352 105.901 129.7 105.638C129.923 105.467 130.106 105.132 129.918 104.923C129.631 104.61 128.795 105.342 128.561 104.989L128.373 104.668C129.467 104.194 130.592 103.699 131.398 102.825C131.949 102.223 133.213 101.31 132.642 100.728L132.291 100.371M122.004 88.7925C120.649 90.6864 118.622 92.0823 116.366 92.6648C115.312 92.9354 114.186 93.052 113.262 93.6281C112.179 94.3029 111.556 95.5029 111.061 96.6806C110.572 97.8418 110.156 99.0409 109.54 100.134C108.92 101.232 108.066 102.24 106.929 102.783C105.634 103.399 104.135 103.349 102.703 103.393C101.267 103.438 99.7274 103.642 98.6775 104.624C97.3802 105.836 97.1803 107.922 95.8259 109.068C95.0871 109.693 94.1054 109.94 93.3004 110.476C92.2335 111.188 91.6322 111.733 91.5588 113.013L91.4619 113.843C91.1185 114.332 90.3557 114.158 89.8051 113.927C89.6089 113.845 89.407 113.759 89.2545 113.609C88.9353 113.286 88.9358 112.771 88.9991 112.326C89.1539 111.193 89.5286 110.046 89.3016 108.925C89.2308 108.578 89.1012 108.243 89.0255 107.897C88.8827 107.256 88.9122 106.589 88.8576 105.932C88.7981 105.276 88.6271 104.589 88.1571 104.126L87.4567 104.279C85.784 105.193 84.4467 105.746 82.5832 105.371C81.9811 105.249 81.4074 105.001 80.7999 104.906C80.1923 104.811 79.5076 104.88 79.0689 105.316C78.7851 105.598 78.4806 106.05 78.1154 105.897C77.9299 105.818 77.8374 105.607 77.7785 105.416C77.548 104.648 77.3374 104.599 77.5238 103.819L77.6337 103.381C77.4527 101.024 78.6917 98.6149 80.72 97.3957C82.2277 96.49 84.1109 96.2001 85.3953 95.0003C86.8103 93.6816 87.1623 91.5999 88.1887 89.9655C89.0924 88.5244 90.5495 87.4457 92.1877 86.9968C94.2788 86.4231 96.7506 86.7825 98.3838 85.3548C100.21 83.7619 100.012 80.7314 101.648 78.9447C102.475 78.0423 103.665 77.5759 104.676 76.8887C105.692 76.2005 106.631 75.6267 106.409 74.4183L106.45 73.6133C107.429 73.4063 108.554 73.2292 109.352 73.8366C109.626 74.046 109.838 74.3321 110.078 74.5778C110.986 75.4942 112.323 75.8051 113.541 76.2381C114.758 76.671 116.043 77.4051 116.377 78.6493C116.702 79.865 116.047 81.318 116.787 82.3396C117.24 82.9671 118.059 83.172 118.783 83.439C119.911 83.8571 120.972 84.5498 121.623 85.5567C122.275 86.5635 122.453 87.926 121.876 88.9866" stroke="#080908" stroke-width="0.7" stroke-miterlimit="10" stroke-linejoin="round"/>
<path d="M76.7019 155.775C78.8542 162.836 77.3689 169.485 79.6883 176.289C80.39 177.843 82.2164 179.82 84.1938 177.994C86.6536 175.578 89.6485 173.103 91.0584 169.336M96.2005 174.383C97.7671 177.068 101.148 178.349 103.827 178.076C106.506 177.803 107.84 174.958 109.818 173.132C115.165 167.169 120.566 161.743 124.411 154.61M101.758 146.67C101.788 152.83 100.357 160.015 104.118 165.047C104.118 165.047 104.654 164.993 105.189 164.934C110.697 160.58 115.027 155.266 119.596 149.96" stroke="#1D1D1B" stroke-width="0.7" stroke-miterlimit="10" stroke-linejoin="round"/>
<path d="M88.9675 161.679C89.845 165.358 90.8205 169.221 93.4439 171.943C94.4256 172.962 95.6101 173.785 96.544 174.848M119.381 150.003C119.683 150 119.987 150.003 120.284 150.031C121.45 150.14 122.57 150.711 123.349 151.584C124.129 152.458 124.558 153.64 124.531 154.811C124.477 154.734 124.419 154.659 124.365 154.583M120.291 150.04C120.79 149.574 121.29 149.112 121.789 148.646M124.582 153.949L125.796 152.807M121.862 148.745C122.892 148.69 123.964 148.957 124.782 149.586C125.6 150.22 126.137 151.242 126.076 152.273M121.828 148.266C122.654 147.217 123.668 146.317 124.803 145.618" stroke="#1D1D1B" stroke-width="0.7" stroke-miterlimit="10" stroke-linejoin="round"/>
<path d="M125.307 145.525L127.612 146.716C128.417 147.131 129.234 147.558 129.897 148.174C130.827 149.041 131.387 150.22 131.862 151.4C132.623 153.291 133.214 155.253 133.625 157.251C133.669 157.471 133.714 157.7 133.64 157.91C133.442 158.51 132.576 158.496 131.993 158.25C130.702 157.713 129.692 156.679 128.723 155.672C127.878 154.8 127.038 153.927 126.193 153.05" stroke="#1D1D1B" stroke-width="0.7" stroke-miterlimit="10" stroke-linejoin="round"/>
<path d="M124.863 145.552C125.091 145.27 125.354 145.012 125.638 144.79C125.753 144.699 125.879 144.611 126.021 144.587C126.178 144.559 126.338 144.607 126.488 144.656C128.014 145.151 129.596 145.677 130.772 146.768C131.472 147.418 131.989 148.236 132.48 149.049C132.922 149.785 133.35 150.528 133.7 151.31C134.409 152.907 134.766 154.653 134.744 156.399C134.741 156.586 134.734 156.779 134.68 156.96C134.494 157.599 133.811 157.936 133.201 158.199" stroke="#1D1D1B" stroke-width="0.7" stroke-miterlimit="10" stroke-linejoin="round"/>
<path d="M122.262 148.523C122.178 148.532 122.199 148.392 122.253 148.327C122.501 148.041 122.748 147.751 122.996 147.465C122.696 147.745 122.466 148.103 122.337 148.489C122.715 148.14 123.044 147.739 123.304 147.295C123.132 147.663 122.96 148.037 122.787 148.405C123.275 148.025 123.641 147.509 123.84 146.923C123.465 147.347 123.067 147.811 123.019 148.375C123.596 147.895 124.06 147.283 124.358 146.595C123.952 146.954 123.571 147.349 123.231 147.772C123.777 147.399 124.268 146.944 124.683 146.432C124.454 146.474 124.239 146.571 124.056 146.715C123.872 146.859 123.727 147.045 123.631 147.257C124.047 146.836 124.458 146.416 124.874 145.994C124.599 146.325 124.293 146.626 123.95 146.888C124.271 146.59 124.598 146.29 124.919 145.991C124.643 146.262 124.397 146.558 124.176 146.879C124.54 146.568 124.9 146.257 125.264 145.941C125.04 145.99 124.982 146.349 125.178 146.461C125.258 146.427 125.303 146.338 125.292 146.249C125.147 146.254 125.002 146.265 124.857 146.27C124.84 146.091 125.127 146.086 125.268 146.198C125.408 146.304 125.596 146.453 125.739 146.347C125.65 146.186 125.52 146.048 125.362 145.954C125.87 146.375 126.373 146.797 126.882 147.223C126.438 146.962 125.998 146.701 125.553 146.441C126.259 146.659 126.935 146.961 127.569 147.339C126.953 147.049 126.34 146.752 125.723 146.461C126.561 146.688 127.358 147.058 128.074 147.539C127.219 147.184 126.337 146.823 125.413 146.793C126.261 147.023 127.136 147.173 128.015 147.231C126.996 147.122 125.976 147.008 124.957 146.899C125.749 147.038 126.54 147.172 127.327 147.311C126.519 147.024 125.681 146.822 124.832 146.704C124.838 146.97 125.118 147.128 125.372 147.22C125.986 147.44 126.642 147.553 127.293 147.55C126.434 147.372 125.562 147.242 124.685 147.164C125.301 147.419 125.958 147.567 126.624 147.596C125.872 147.334 125.084 147.164 124.288 147.087C124.71 147.679 125.497 147.991 126.208 147.841C125.634 147.533 124.97 147.438 124.333 147.574C124.73 147.908 125.309 148.014 125.796 147.827C125.871 147.764 125.765 147.646 125.668 147.612C125.177 147.436 124.641 147.399 124.13 147.513C124.535 147.836 125.027 148.048 125.54 148.124C125.044 148.03 124.536 147.983 124.03 147.975C124.391 148.22 124.812 148.374 125.249 148.418C124.753 148.268 124.24 148.166 123.722 148.12C124.125 148.403 124.606 148.581 125.093 148.627C124.544 148.516 123.979 148.464 123.418 148.461C123.789 148.76 124.284 148.905 124.755 148.858C124.264 148.651 123.75 148.509 123.223 148.445C123.733 148.729 124.325 148.853 124.906 148.796C124.556 148.757 124.209 148.681 123.872 148.574C124.536 148.619 125.195 148.746 125.831 148.947C125.393 148.782 124.951 148.622 124.513 148.456C124.958 149.206 125.567 149.857 126.29 150.351L124.388 148.837L126.505 150.541C125.947 149.836 125.335 149.17 124.676 148.554C125.422 149.382 126.234 150.148 127.103 150.845C126.354 150.082 125.65 149.276 124.994 148.433C125.584 149.122 126.205 149.781 126.855 150.409C126.371 149.665 125.838 148.956 125.255 148.281C125.852 148.923 126.49 149.534 127.165 150.102C126.85 149.633 126.491 149.195 126.092 148.795C126.431 149.391 126.92 149.887 127.511 150.233C127.095 149.614 126.646 149.016 126.162 148.445C126.673 149.027 127.18 149.614 127.691 150.196C127.2 149.581 126.703 148.966 126.211 148.35C126.692 148.816 127.177 149.277 127.657 149.743C127.394 149.428 127.173 149.08 127.001 148.707C127.445 149.134 127.85 149.603 128.206 150.106C127.714 149.344 127.221 148.577 126.729 147.815C127.173 148.394 127.617 148.967 128.062 149.546L126.586 147.608C127.142 148.303 127.703 148.998 128.261 149.698C127.834 149.222 127.406 148.742 126.979 148.266C126.917 148.196 126.842 148.118 126.75 148.109C126.657 148.1 126.554 148.204 126.604 148.286" stroke="#1D1D1B" stroke-width="0.7" stroke-miterlimit="10" stroke-linejoin="round"/>
<path d="M125.83 148.16C126.016 148.067 126.22 148.026 126.424 148.035C126.373 148.408 125.86 148.619 125.562 148.388C125.773 148.412 125.983 148.431 126.195 148.454C126.227 148.267 126.187 148.067 126.084 147.908C126.146 148.235 126.244 148.562 126.373 148.867C126.45 149.046 126.632 149.251 126.795 149.142C126.845 149.108 126.871 149.058 126.892 149.004C127.092 148.529 126.868 147.917 126.408 147.685C126.475 148.006 126.677 148.294 126.954 148.463C127.021 148.501 127.103 148.537 127.172 148.5C127.273 148.442 127.247 148.29 127.202 148.182C126.935 147.563 126.543 147.006 126.052 146.545C126.218 146.976 126.619 147.304 127.073 147.386L126.132 146.713C126.456 146.919 126.824 147.061 127.203 147.121C126.734 146.92 126.286 146.671 125.866 146.376C126.365 146.833 126.962 147.172 127.61 147.368C127.002 146.944 126.416 146.489 125.856 146.004C126.473 146.385 127.091 146.767 127.707 147.144C127.186 146.791 126.619 146.496 126.03 146.276C127.099 146.841 128.099 147.535 129.006 148.33C128.464 147.89 127.921 147.444 127.38 147.004C128.175 147.536 128.939 148.119 129.669 148.744C129.011 148.308 128.416 147.783 127.901 147.185C128.662 147.552 129.341 148.084 129.874 148.733C129.441 148.365 129.013 147.995 128.58 147.632C129.328 148.097 130.031 148.645 130.659 149.262C129.643 148.91 128.747 148.294 127.858 147.688C128.43 148.416 129.113 149.058 129.881 149.575C129.048 148.913 128.186 148.292 127.3 147.705C127.879 148.528 128.674 149.201 129.584 149.638C128.73 149.035 127.889 148.41 127.061 147.777C127.997 148.795 128.937 149.811 129.874 150.834C129.281 149.756 128.494 148.783 127.565 147.977C128.434 149.408 129.345 150.812 130.299 152.189C129.528 151.247 128.849 150.232 128.273 149.16C129.063 150.411 129.807 151.689 130.5 152.992C130.364 152.561 130.132 152.162 129.821 151.828C129.881 152.196 130.02 152.556 130.221 152.869" stroke="#1D1D1B" stroke-width="0.7" stroke-miterlimit="10" stroke-linejoin="round"/>
<path d="M129.518 150.073C130.086 151.094 130.658 152.11 131.226 153.131C130.601 151.872 129.977 150.618 129.357 149.359C130.117 150.467 130.617 151.733 131.108 152.98C130.899 151.643 129.793 150.605 129.466 149.289C130.084 150.161 130.578 151.114 130.933 152.122C130.589 151.172 130.251 150.222 129.907 149.267C130.274 150.178 130.644 151.082 131.011 151.992C130.759 151.072 130.435 150.175 130.035 149.305C130.522 150.156 130.908 151.062 131.184 152.002C130.978 151.054 130.663 150.124 130.251 149.242C130.671 150.083 131.054 150.94 131.408 151.807C131.152 151.039 130.901 150.27 130.646 149.506C131.122 150.468 131.516 151.475 131.818 152.507L131.294 150.64C131.67 151.69 132.017 152.75 132.326 153.817C132.155 153.074 131.883 152.36 131.528 151.685C131.886 152.748 132.239 153.812 132.598 154.88C132.159 153.902 131.682 152.94 131.168 151.995C131.57 152.99 131.976 153.984 132.378 154.98C131.957 153.932 131.376 152.953 130.658 152.085C131.023 153.071 131.475 154.032 132.007 154.938L130.28 152.348C130.72 153.129 131.161 153.915 131.601 154.697C131.008 153.791 130.42 152.884 129.827 151.978C130.345 153.033 130.901 154.072 131.503 155.087C130.699 153.693 129.823 152.342 128.879 151.038C129.548 152.375 130.324 153.663 131.194 154.879C130.28 153.383 129.366 151.882 128.452 150.386C129.079 151.599 129.707 152.822 130.503 153.935C130.023 152.549 129.396 151.22 128.635 149.965C129.046 151.095 129.546 152.194 130.129 153.243C129.691 151.926 128.795 150.816 127.919 149.737C128.464 150.882 129.133 151.963 129.914 152.963C129.274 151.908 128.508 150.937 127.634 150.07C128.243 151.124 128.889 152.158 129.571 153.169C128.958 152.12 128.217 151.149 127.368 150.283C127.825 151.495 128.457 152.633 129.243 153.661C128.685 152.582 127.979 151.58 127.156 150.684C127.702 151.81 128.335 152.886 129.054 153.906C128.814 152.905 128.247 152.013 127.443 151.371C127.898 152.442 128.42 153.487 129.016 154.494C128.98 154.404 128.94 154.32 128.904 154.23" stroke="#1D1D1B" stroke-width="0.7" stroke-miterlimit="10" stroke-linejoin="round"/>
<path d="M126.632 150.493L127.701 152.871C127.316 151.858 126.751 150.911 126.046 150.086C126.514 150.913 126.987 151.739 127.456 152.57C126.988 151.799 126.523 151.022 126.055 150.251C126.308 150.974 126.633 151.675 127.017 152.339C126.807 151.75 126.498 151.198 126.11 150.711C126.272 151.233 126.535 151.722 126.876 152.142C126.69 151.917 126.535 151.666 126.422 151.398C126.548 151.881 126.667 152.36 126.792 152.843C126.756 152.526 126.653 152.221 126.488 151.947C126.411 152.218 126.389 152.502 126.423 152.782C126.365 152.625 126.269 152.481 126.143 152.366C126.153 152.511 126.193 152.651 126.26 152.775C126.199 152.685 126.137 152.595 126.082 152.508C126.083 152.69 126.136 152.873 126.229 153.028L126.186 152.697C126.247 152.848 126.402 152.952 126.563 152.949C126.644 152.864 126.637 152.709 126.538 152.635C126.738 153.055 126.989 153.45 127.284 153.808C127.134 153.299 126.879 152.818 126.543 152.402C127.092 153.346 127.72 154.246 128.417 155.083C128.443 154.857 128.314 154.642 128.19 154.452C127.834 153.888 127.472 153.325 127.116 152.761C127.888 153.676 128.658 154.587 129.43 155.502C128.753 154.378 127.989 153.305 127.159 152.289C128.008 153.469 128.936 154.588 129.939 155.64C129.524 154.743 128.979 153.909 128.324 153.171C129.065 154.313 129.86 155.421 130.705 156.495C130.032 155.852 129.304 155.268 128.53 154.75C129.126 155.439 129.774 156.083 130.459 156.68L128.765 155.169C129.282 155.608 129.798 156.048 130.31 156.489C130.053 156.291 129.817 156.07 129.594 155.832C130.244 156.258 130.866 156.724 131.459 157.226C131.288 156.883 131.055 156.565 130.773 156.307C131.153 156.72 131.539 157.132 131.919 157.545C131.412 157.189 130.881 156.868 130.324 156.597C130.884 157.14 131.477 157.642 132.104 158.108C131.591 157.663 131.062 157.21 130.423 156.989C130.991 157.409 131.616 157.744 132.279 157.987C132.133 157.785 131.992 157.587 131.846 157.386C132.008 157.59 132.249 157.729 132.507 157.76C132.316 157.187 131.966 156.663 131.503 156.269C131.824 156.799 132.19 157.305 132.587 157.781C132.345 156.98 132.061 156.197 131.729 155.427C131.952 156.004 132.217 156.563 132.518 157.101C132.461 156.601 132.383 156.1 132.276 155.609L132.854 157.26C132.75 156.753 132.641 156.247 132.537 155.74L132.991 157.21L132.551 154.959C132.787 155.67 133.018 156.382 133.254 157.093L132.687 154.895L133.213 156.772L132.906 156.235C132.919 156.395 132.937 156.553 132.95 156.713C132.669 156.438 132.409 156.136 132.181 155.812C132.443 156.387 132.711 156.962 132.974 157.542C132.774 156.834 132.493 156.151 132.133 155.512C131.995 155.269 131.823 155.011 131.55 154.948C131.787 155.699 132.15 156.413 132.619 157.043C132.478 156.583 132.283 156.138 132.039 155.721C132.036 156.166 132.123 156.605 132.291 157.015C132.158 156.462 132.113 155.885 132.155 155.322C132.22 155.548 132.233 155.793 132.187 156.023C132.151 156.221 131.782 156.19 131.777 155.989C131.772 155.788 132.144 155.748 132.184 155.948M131.544 156.762C131.315 156.232 131.039 155.724 130.718 155.246" stroke="#1D1D1B" stroke-width="0.7" stroke-miterlimit="10" stroke-linejoin="round"/>
<path d="M129.992 154.358C130.525 155.154 131.062 155.943 131.596 156.738C130.88 155.42 129.85 154.272 128.624 153.412C129.125 154.4 129.729 155.334 130.425 156.196C130.554 156.184 130.573 156.004 130.552 155.881C130.326 154.567 129.513 153.443 128.689 152.4C129.494 153.304 130.238 154.265 130.914 155.272C130.497 154.391 130.108 153.495 129.747 152.588C130.094 153.618 130.585 154.603 131.198 155.505C131.369 154.869 131.193 154.153 130.745 153.671C130.903 154.572 131.183 155.452 131.575 156.277C131.616 155.932 131.583 155.574 131.47 155.245C131.605 155.782 131.72 156.323 131.816 156.872C131.658 156.46 131.496 156.054 131.338 155.642C131.361 156.007 131.33 156.376 131.251 156.728C131.072 156.431 130.917 156.12 130.781 155.806M45.3904 108.712C44.8227 108.786 44.3945 109.311 44.2487 109.862C44.1029 110.412 44.1758 111.001 44.2509 111.573C44.3215 112.091 44.4013 112.633 44.7124 113.053C45.1664 113.655 46.0217 113.838 46.7563 113.679C47.4909 113.52 48.129 113.07 48.7122 112.594C49.3928 112.04 50.0878 111.166 49.7017 110.375C49.5669 110.096 49.3141 109.892 49.0518 109.721C47.9384 108.987 46.5441 108.697 45.2245 108.918M51.1797 100.546L49.2746 105.319M39.8175 103.109C39.9559 104.1 40.3802 105.051 41.0196 105.817M37.5505 115.465C38.2103 115.253 38.8405 114.931 39.3938 114.516M45.4045 118.9L45.2675 121.747M52.2183 116.231C52.5533 116.874 53.0137 117.455 53.5575 117.935M54.9898 110.437C55.6773 110.701 56.4191 110.813 57.1539 110.77" stroke="#1D1D1B" stroke-width="0.7" stroke-miterlimit="10" stroke-linejoin="round"/>
<defs>
<filter id="filter0_d_1303_3366" x="124.469" y="7.479" width="183.128" height="237.189" filterUnits="userSpaceOnUse" color-interpolation-filters="sRGB">
<feFlood flood-opacity="0" result="BackgroundImageFix"/>
<feColorMatrix in="SourceAlpha" type="matrix" values="0 0 0 0 0 0 0 0 0 0 0 0 0 0 0 0 0 0 127 0" result="hardAlpha"/>
<feOffset dx="2" dy="4"/>
<feGaussianBlur stdDeviation="9"/>
<feColorMatrix type="matrix" values="0 0 0 0 0.768627 0 0 0 0 0.768627 0 0 0 0 0.768627 0 0 0 0.35 0"/>
<feBlend mode="normal" in2="BackgroundImageFix" result="effect1_dropShadow_1303_3366"/>
<feBlend mode="normal" in="SourceGraphic" in2="effect1_dropShadow_1303_3366" result="shape"/>
</filter>
<filter id="filter1_d_1303_3366" x="0.0966797" y="0.871582" width="179.184" height="235.826" filterUnits="userSpaceOnUse" color-interpolation-filters="sRGB">
<feFlood flood-opacity="0" result="BackgroundImageFix"/>
<feColorMatrix in="SourceAlpha" type="matrix" values="0 0 0 0 0 0 0 0 0 0 0 0 0 0 0 0 0 0 127 0" result="hardAlpha"/>
<feOffset dx="2" dy="4"/>
<feGaussianBlur stdDeviation="9"/>
<feColorMatrix type="matrix" values="0 0 0 0 0.768627 0 0 0 0 0.768627 0 0 0 0 0.768627 0 0 0 0.35 0"/>
<feBlend mode="normal" in2="BackgroundImageFix" result="effect1_dropShadow_1303_3366"/>
<feBlend mode="normal" in="SourceGraphic" in2="effect1_dropShadow_1303_3366" result="shape"/>
</filter>
<linearGradient id="paint0_linear_1303_3366" x1="240.727" y1="153.305" x2="208.999" y2="100.235" gradientUnits="userSpaceOnUse">
<stop stop-color="#FA24BF"/>
<stop offset="0.71875" stop-color="#FE8EF3"/>
</linearGradient>
<linearGradient id="paint1_linear_1303_3366" x1="61.0868" y1="96.3948" x2="109.339" y2="159.894" gradientUnits="userSpaceOnUse">
<stop offset="0.284362" stop-color="#6E7CF6"/>
<stop offset="1" stop-color="#1B2FDB"/>
</linearGradient>
</defs>
</svg>
