<svg width="559" height="756" viewBox="0 0 559 756" fill="none" xmlns="http://www.w3.org/2000/svg">
<g filter="url(#filter0_d_219_152)">
<rect x="238.398" y="153.999" width="317" height="500" rx="14.0178" transform="rotate(16.6664 238.398 153.999)" fill="white"/>
</g>
<path d="M141.307 603.455C142.307 603.754 143.038 604.199 143.401 604.871C143.715 605.453 143.76 606.181 143.471 607.147L142.48 610.457L139.797 610.631C136.887 610.812 135.449 611.096 134.687 611.507C134.015 611.869 133.598 612.383 133.361 613.176C132.896 614.728 133.608 616.745 135.539 617.323C137.125 617.798 138.253 617.422 139.839 616.769L140.659 616.413L140.752 616.479C140.488 618.241 141.636 619.299 142.775 619.64C144.258 620.084 146.029 619.186 146.726 618.493L146.663 618.324C146.201 618.486 145.746 618.5 145.401 618.397C144.988 618.273 144.615 618.011 144.422 617.653C144.18 617.204 144.149 616.556 144.396 615.728L146.771 607.796C147.298 606.037 147.449 604.655 146.893 603.624C146.482 602.862 145.678 602.283 144.368 601.891C142.747 601.406 139.52 602.394 137.548 603.457C136.652 603.94 136.028 604.392 135.915 604.772C135.739 605.358 136.022 605.668 136.539 605.823C137.332 606.06 139.332 605.908 139.415 605.632L139.265 603.37C139.672 603.266 140.41 603.186 141.307 603.455ZM140.797 616.079C140.107 616.248 139.562 616.311 138.769 616.073C137.562 615.712 136.727 614.485 137.181 612.967C137.377 612.312 137.774 611.867 138.311 611.577C139.297 611.045 140.777 611 142.345 610.906L140.797 616.079ZM162.039 607.331C160.176 606.774 158.39 607.216 155.657 608.314L155.539 608.204L155.997 606.8C156.176 606.328 156.345 605.89 156.538 605.497L156.465 605.362L150.976 605.748L150.945 605.852L151.704 607.206C151.898 607.565 151.912 608.02 151.726 608.641L148.432 619.642C148.267 620.194 148.133 620.267 147.239 620.112L146.701 620.026L146.629 620.268L152.906 622.147L152.978 621.905L152.482 621.681C151.65 621.32 151.578 621.185 151.743 620.634L155.305 608.735C156.446 608.438 157.432 608.282 158.536 608.613C159.467 608.892 160.047 609.215 160.433 609.932C160.844 610.694 160.6 612.011 160.063 613.805L157.502 622.358C157.337 622.91 157.203 622.982 156.31 622.827L155.772 622.742L155.699 622.983L161.976 624.862L162.048 624.621L161.552 624.397C160.721 624.035 160.648 623.901 160.813 623.349L164.055 612.52C164.654 610.52 164.564 609.816 164.032 608.83C163.646 608.113 162.797 607.559 162.039 607.331ZM176.738 611.695C171.807 610.218 166.767 613.369 165.404 617.922C163.98 622.681 165.958 626.618 169.441 627.66C170.751 628.053 172.782 627.796 174.74 627.03L174.858 627.14L174.562 627.878C174.383 628.351 174.214 628.789 174.021 629.182L174.093 629.316L179.89 629.661L179.928 629.41L179.021 629.176C178.148 628.952 178.062 628.738 178.31 627.911L184.536 607.115C184.721 606.494 184.973 605.78 185.166 605.387L185.093 605.252L179.752 605.645L179.721 605.748L180.481 607.103C180.674 607.462 180.688 607.917 180.502 608.537L179.242 612.745C178.432 612.314 177.635 611.963 176.738 611.695ZM175.756 611.964C177.48 612.48 178.984 613.983 177.566 618.594L175.092 626.609C174.482 626.765 173.416 626.934 172.244 626.583C169.795 625.85 167.876 622.72 169.208 618.271C170.633 613.512 173.618 611.324 175.756 611.964ZM193.109 610.846C192.769 611.984 193.452 613.091 194.59 613.432C195.832 613.803 196.987 613.209 197.348 612.002C197.689 610.864 197.105 609.675 196.002 609.345C194.726 608.963 193.471 609.639 193.109 610.846ZM194.621 618.852C194.807 618.231 195.058 617.517 195.251 617.124L195.178 616.99L189.837 617.382L189.806 617.486L190.566 618.841C190.759 619.199 190.773 619.654 190.587 620.275L187.294 631.277C187.129 631.828 186.994 631.901 186.101 631.746L185.563 631.66L185.491 631.902L191.767 633.781L191.84 633.539L191.343 633.316C190.512 632.954 190.439 632.82 190.605 632.268L194.621 618.852ZM201.782 633.998C201.297 635.619 199.946 636.117 198.635 635.724C196.566 635.105 195.396 632.988 194.904 629.609L194.573 629.585C194.257 630.768 193.937 632.965 193.848 634.141C194.98 635.006 196.39 635.691 197.873 636.135C201.046 637.085 204.215 636.042 205.072 633.179C205.691 631.11 205.118 629.51 202.378 626.36C200.925 624.685 200.125 623.468 200.579 621.951C200.93 620.778 201.93 619.95 203.55 620.436C204.792 620.807 205.834 622.096 206.356 624.996L206.688 625.02C206.884 624.365 207.355 622.289 207.406 621.74C206.854 621.199 205.588 620.407 204.036 619.942C200.933 619.013 198.064 620.184 197.311 622.701C196.67 624.839 197.544 626.566 199.766 629.186C201.374 631.095 202.257 632.412 201.782 633.998ZM224.355 625.95C223.044 625.557 220.944 625.793 218.986 626.56L218.869 626.449L221.367 618.103C221.553 617.483 221.805 616.769 221.997 616.376L221.925 616.241L216.584 616.634L216.553 616.737L217.312 618.092C217.506 618.451 217.52 618.906 217.334 619.526L212.017 637.288C211.758 638.15 211.352 639.005 211.039 639.55L211.215 639.716C211.349 639.643 212.149 639.356 212.673 639.363C213.556 640.304 215.609 641.482 217.057 641.916C221.989 643.392 227.028 640.241 228.391 635.689C229.816 630.929 227.838 626.993 224.355 625.95ZM221.552 627.027C224 627.76 225.919 630.89 224.587 635.339C223.163 640.098 220.178 642.286 218.04 641.646C216.315 641.13 214.811 639.627 216.219 635.051L218.704 627.001C219.314 626.846 220.379 626.676 221.552 627.027ZM239.098 623.449C239.284 622.828 239.535 622.115 239.728 621.721L239.656 621.587L234.315 621.98L234.284 622.083L235.043 623.438C235.236 623.796 235.25 624.251 235.065 624.872L229.376 643.875C229.21 644.427 229.076 644.499 228.183 644.345L227.645 644.259L227.573 644.5L233.849 646.379L233.922 646.138L233.425 645.914C232.594 645.552 232.521 645.418 232.687 644.866L239.098 623.449ZM242.925 625.76C242.584 626.898 243.268 628.004 244.406 628.345C245.647 628.717 246.802 628.123 247.163 626.916C247.504 625.778 246.921 624.589 245.817 624.258C244.541 623.876 243.286 624.553 242.925 625.76ZM244.436 633.766C244.622 633.145 244.874 632.431 245.066 632.038L244.994 631.903L239.653 632.296L239.622 632.399L240.381 633.754C240.575 634.113 240.589 634.568 240.403 635.189L237.109 646.19C236.944 646.742 236.81 646.814 235.916 646.66L235.378 646.574L235.306 646.815L241.583 648.694L241.655 648.453L241.159 648.229C240.327 647.868 240.255 647.733 240.42 647.181L244.436 633.766ZM258.449 636.194C256.587 635.637 254.801 636.079 252.067 637.177L251.95 637.067L252.408 635.663C252.587 635.191 252.755 634.753 252.948 634.36L252.876 634.225L247.386 634.611L247.355 634.715L248.115 636.069C248.308 636.428 248.322 636.883 248.136 637.504L244.843 648.505C244.678 649.057 244.543 649.13 243.65 648.975L243.112 648.889L243.04 649.131L249.316 651.01L249.389 650.768L248.892 650.544C248.061 650.183 247.988 650.048 248.154 649.497L251.716 637.598C252.857 637.301 253.843 637.145 254.946 637.476C255.878 637.755 256.457 638.078 256.844 638.795C257.255 639.557 257.01 640.874 256.474 642.668L253.913 651.221C253.748 651.773 253.613 651.845 252.72 651.69L252.182 651.605L252.11 651.846L258.387 653.725L258.459 653.484L257.962 653.26C257.131 652.898 257.059 652.764 257.224 652.212L260.466 641.383C261.065 639.383 260.975 638.679 260.443 637.693C260.056 636.976 259.208 636.422 258.449 636.194ZM273.149 640.558C268.217 639.081 263.178 642.232 261.815 646.785C260.39 651.544 262.368 655.481 265.851 656.523C267.162 656.916 269.193 656.659 271.151 655.893L271.268 656.003L270.972 656.741C270.793 657.214 270.624 657.652 270.431 658.045L270.504 658.179L276.301 658.524L276.338 658.273L275.431 658.039C274.559 657.815 274.472 657.601 274.72 656.774L280.946 635.978C281.132 635.357 281.383 634.643 281.576 634.25L281.504 634.115L276.163 634.508L276.132 634.611L276.891 635.966C277.084 636.325 277.098 636.78 276.913 637.4L275.653 641.608C274.842 641.177 274.046 640.826 273.149 640.558ZM272.166 640.827C273.891 641.343 275.395 642.846 273.977 647.457L271.502 655.472C270.892 655.628 269.827 655.797 268.654 655.446C266.206 654.713 264.287 651.583 265.618 647.134C267.043 642.375 270.028 640.187 272.166 640.827Z" fill="black"/>
<path d="M409.087 491.017C409.058 491.117 409.024 491.23 408.994 491.329C407.981 491.906 407.264 492.803 406.626 493.77C406.514 493.953 406.321 494.065 406.173 494.221C405.558 494.824 404.951 495.446 404.336 496.049C403.446 496.94 402.579 497.854 401.667 498.724C401.427 498.945 401.057 499.02 400.826 499.259C400.202 499.891 399.632 500.585 399.008 501.216C398.651 501.588 398.208 501.857 397.855 502.214C397.694 502.367 397.565 502.652 397.554 502.881C397.48 504.434 396.926 504.978 395.407 505.264C394.807 505.378 394.217 505.803 393.678 506.198C393.118 506.617 392.657 507.189 392.097 507.608C391.047 508.406 390.074 509.287 388.803 509.756C387.924 510.08 387.174 510.843 386.351 511.415C385.948 511.696 385.568 511.999 385.16 512.248C385.02 512.329 384.764 512.361 384.662 512.268C384.158 511.87 383.944 512.1 383.878 512.806C383.798 512.782 383.727 512.776 383.648 512.752C383.336 512.149 383.015 511.528 382.725 510.947C382.306 510.992 381.816 511.031 381.323 511.083C381.173 511.1 380.948 511.126 380.905 511.221C380.595 511.869 379.98 511.793 379.495 511.864C378.019 512.055 376.527 512.103 375.054 512.279C373.877 512.436 372.703 512.78 371.53 512.923C369.939 513.11 368.341 513.172 366.744 513.281C366.669 513.289 366.608 513.348 366.533 513.357C365.947 513.475 365.349 513.635 364.749 513.703C364.017 513.777 363.275 513.74 362.604 513.755C362.458 514.097 362.384 514.538 362.208 514.594C361.667 514.756 361.064 514.931 360.542 514.836C359.263 514.608 358.009 514.248 356.751 513.902C356.135 513.733 355.571 513.441 354.96 513.258C353.36 512.794 351.731 512.43 350.148 511.91C348.641 511.428 347.172 510.818 345.695 510.237C345.291 510.085 344.896 509.905 344.514 509.683C343.442 509.053 342.413 508.328 341.32 507.769C340.218 507.192 339.043 506.763 337.898 506.282C336.988 505.886 336.065 505.532 335.164 505.108C333.134 504.145 331.079 503.221 329.097 502.149C327.514 501.289 326.053 500.219 324.522 499.236C324.096 499.741 323.582 500.344 323.073 500.932C323.086 500.936 323.082 500.95 323.095 500.954C322.9 501.22 322.704 501.486 322.487 501.776C321.57 501.501 320.991 502.224 320.3 502.742C320.171 502.642 320.006 502.562 319.868 502.443C318.917 501.556 317.97 500.655 317.005 499.764C315.746 498.6 314.456 497.488 313.206 496.295C311.186 494.379 309.73 491.935 307.886 489.824C305.781 487.418 304.219 484.604 302.692 481.769C302.163 480.777 301.683 479.768 301.119 478.797C300.47 477.676 299.807 476.551 299.044 475.52C298.469 474.73 297.724 474.075 297.053 473.364C295.872 472.131 294.648 470.946 293.524 469.668C293.058 469.142 292.18 468.787 292.56 467.758C292.285 467.614 292.062 467.486 291.84 467.357C291.861 467.286 291.878 467.23 291.899 467.159C292.151 467.141 292.407 467.11 292.821 467.08C291.931 466.813 292.126 466.547 292.665 466.246C293.064 466.025 293.57 465.837 293.804 465.49C294.524 464.44 294.258 463.248 294.041 462.134C293.81 460.875 293.406 459.658 293.205 458.394C293.037 457.263 293.133 456.072 292.951 454.937C292.723 453.618 293.304 452.356 293.142 451.057C293.137 451.024 293.291 450.993 293.322 450.941C293.451 450.702 293.572 450.444 293.701 450.205C293.666 450.179 293.63 450.153 293.594 450.127C293.476 450.23 293.358 450.334 293.135 450.499C293.28 449.678 293.421 448.963 293.545 448.259C293.6 448.075 293.412 447.833 293.417 447.573C293.384 446.621 293.394 445.667 293.422 444.702C293.476 442.974 293.526 441.259 293.65 439.537C293.752 438.131 293.938 436.736 294.098 435.332C294.165 434.719 294.246 434.11 294.314 433.498C294.454 431.965 295.266 430.463 294.659 428.861C294.549 428.55 294.654 428.103 294.747 427.745C294.878 427.259 295.093 426.783 295.25 426.305C295.911 424.341 295.907 422.225 296.921 420.336C297.418 419.404 297.545 418.253 297.757 417.159C298.209 414.778 298.918 412.458 299.56 410.118C299.64 409.802 299.937 409.536 300.085 409.333C300.073 409.036 299.999 408.751 300.057 408.507C300.183 407.942 300.437 407.385 300.505 406.819C300.726 405.017 301.358 403.338 302.08 401.701C302.488 400.773 302.892 399.86 303.385 398.988C304.215 397.523 305.334 396.638 307.044 397.12C307.23 397.175 307.467 397.014 307.678 396.985C307.859 396.962 308.053 396.896 308.212 396.944C309.064 397.245 309.945 397.494 310.749 397.905C311.993 398.539 313.186 399.298 314.395 400C315.703 400.762 316.892 401.967 318.653 401.166C318.789 401.099 319.002 401.209 319.175 401.261C319.822 401.47 320.478 401.651 321.108 401.917C321.365 402.024 321.576 402.288 321.79 402.491C322.059 402.757 322.253 403.124 322.56 403.308C323.241 403.744 323.978 404.088 324.689 404.471C325.227 404.755 325.752 405.082 326.298 405.338C327.43 405.863 328.649 406.243 329.721 406.873C331.175 407.725 332.525 408.778 333.919 409.735C334.52 410.147 335.117 410.573 335.748 410.931C336.891 411.567 338.055 412.131 339.197 412.767C340.215 413.334 341.194 413.982 342.221 414.521C343.007 414.942 343.871 415.201 344.649 415.603C345.866 416.23 347.058 416.942 348.259 417.626C348.286 417.634 348.304 417.67 348.321 417.66C350.276 417.952 351.507 419.694 353.342 420.244C353.727 420.359 354.024 420.772 354.367 421.029C354.63 421.216 354.919 421.364 355.186 421.537C355.759 421.894 356.351 422.241 356.921 422.612C357.174 422.781 357.359 423.083 357.621 423.223C358.737 423.851 359.914 424.373 361.003 425.039C363.179 426.385 365.311 427.779 367.456 429.178C368.026 429.549 368.51 430.158 369.131 430.359C369.871 430.596 370.248 431.079 370.558 431.543C370.287 432.156 369.949 432.657 369.863 433.187C369.643 434.743 369.517 436.326 369.355 437.883C369.173 439.651 369.023 441.412 368.828 443.176C368.662 444.747 368.04 446.29 368.387 447.892C368.597 448.881 368.826 449.86 369.116 450.827C369.397 451.776 369.779 452.678 370.059 453.626C370.276 454.355 370.321 455.172 370.625 455.849C370.956 456.582 371.542 457.189 371.939 457.895C373.22 460.1 374.378 462.377 375.751 464.517C376.462 465.625 377.476 466.546 378.419 467.462C379.303 468.329 380.271 469.113 381.225 469.892C381.573 470.182 382.047 470.293 382.413 470.572C383.336 471.311 384.211 472.114 385.112 472.878C385.241 472.978 385.432 473.066 385.582 473.049C386.985 472.96 387.221 474.59 388.417 474.902C388.435 474.891 388.556 474.727 388.643 474.63C388.866 475.098 388.927 475.471 389.128 475.624C389.725 476.05 390.391 476.388 391.036 476.751C392.503 477.561 393.695 478.659 394.551 480.058C394.351 480.291 394.198 480.461 394.042 480.646C394.263 480.728 394.473 480.899 394.694 480.888C396.137 480.857 397.537 481.26 399.031 481.013C400.357 480.792 401.751 481.024 403.098 481.072C404.357 481.125 404.611 481.34 404.875 482.299C405.319 482.509 405.711 482.796 406.085 483.094C406.567 483.469 407.018 483.898 407.534 484.253C408.042 484.59 408.383 485.387 408.11 485.815C407.811 486.281 407.45 486.714 407.16 487.198C407.069 487.356 407.081 487.653 407.167 487.802C407.786 488.929 408.43 489.971 409.087 491.017Z" fill="#E18CB7"/>
<path d="M357.511 426.835L355.185 425.892C354.761 425.086 354.99 424.027 355.489 423.235C355.987 422.442 356.726 421.86 357.438 421.271C361.607 417.748 363.854 415.564 366.186 410.534L366.321 407.518C363.907 407.552 362.049 405.529 360.481 403.654C359.693 402.708 358.881 401.693 358.755 400.42C358.522 397.957 358.832 397.355 360.914 396.111L363.644 394.01C372.419 382.602 385.036 374.522 398.538 371.662L404.607 371.904C402.852 369.156 402.412 365.689 402.018 362.36C401.9 361.351 401.785 360.283 402.149 359.311C402.709 357.826 404.332 356.954 405.82 357.013C407.309 357.073 408.679 357.915 409.748 358.992C412.027 361.249 413.223 364.463 414.347 367.579" stroke="#1D1D1B" stroke-width="1.5" stroke-miterlimit="10"/>
<path d="M438.971 377.312C441.325 379.221 443.662 381.14 446.017 383.05C446.694 383.592 447.381 384.153 447.854 384.896C448.34 385.644 448.58 386.534 448.812 387.407C449.132 388.66 449.439 389.957 449.278 391.267L448.592 394.721C447.614 394.505 446.562 395.117 445.99 396.011C445.418 396.905 445.233 398.007 445.219 399.069C445.175 401.248 445.731 403.406 446.795 405.222C447.905 407.129 449.543 408.623 450.762 410.455C451.81 412.035 452.539 413.859 452.889 415.786C453.041 416.634 453.114 417.551 452.757 418.355C451.928 420.207 449.519 420.319 447.635 420.126C447.635 420.126 446.546 418.055 446.627 418.558C447.626 424.755 448.607 430.962 449.605 437.159C450.213 440.984 450.827 444.982 449.738 448.763C449.323 450.198 448.642 451.6 447.555 452.571L443.84 453.852C442.004 452.145 440.186 450.427 438.351 448.72C437.9 448.291 437.409 447.851 436.802 447.747C436.156 447.63 435.502 447.929 434.923 448.265C433.266 449.205 431.771 450.471 430.558 452.007C429.445 453.403 428.314 455.149 426.625 455.276C424.86 455.411 423.563 453.695 422.845 452.029C421.664 449.298 423.232 446.818 423.46 443.783L421.787 443.807C418.863 445.155 415.772 446.237 412.63 446.377C404.864 446.723 398.185 441.404 392.373 436.19C390.681 434.68 390.766 432.992 388.651 432.219L386.001 432.553C384.784 435.215 383.123 438.053 380.453 438.844C378.579 439.394 376.469 438.701 375.267 437.152C374.064 435.603 373.855 433.256 374.737 431.42L374.463 429.578C372.215 425.523 368.285 425.15 363.946 426.63C362.156 427.237 360.209 428.368 358.54 427.559C357.984 427.285 357.515 426.82 356.922 426.673" stroke="#1D1D1B" stroke-width="1.5" stroke-miterlimit="10"/>
<path d="M414.106 368.77C415.019 363.979 416.976 359.377 419.807 355.439C421.07 353.686 423.013 351.89 424.95 352.532C426.897 353.192 427.375 355.852 427.243 358.035C426.954 362.967 425.221 367.836 422.374 371.832" stroke="#1D1D1B" stroke-width="1.5" stroke-miterlimit="10"/>
<path d="M433.741 378.571C434.836 375.302 438.268 373.658 441.326 372.397C443.078 371.671 444.827 370.959 446.58 370.233C447.507 369.847 448.569 369.3 448.759 368.276C448.999 366.943 447.562 366.034 446.3 365.796C443.747 365.325 441.093 365.966 438.531 366.588C435.15 367.429 431.76 368.251 428.38 369.092C426.298 369.611 424.154 370.143 422.386 371.451" stroke="#1D1D1B" stroke-width="1.5" stroke-miterlimit="10"/>
<path d="M385.98 415.932C386.532 414.523 387.4 413.269 388.263 412.03C390.737 408.509 393.294 404.952 396.613 402.286C399.927 399.635 404.154 397.951 408.15 398.731" stroke="#1D1D1B" stroke-width="1.5" stroke-miterlimit="10"/>
<path d="M422.837 400.815C425.137 401.503 428.237 403.342 429.521 405.441C430.805 407.539 430.772 408.471 431.468 410.887C433.203 416.949 434.422 423.907 431.334 429.529C431.267 429.849 431.871 429.72 431.871 429.381" stroke="#1D1D1B" stroke-width="1.5" stroke-miterlimit="10"/>
<path d="M401.945 392.892C401.141 392.482 400.056 393.3 400.032 394.25C400.009 395.2 400.875 395.984 401.775 395.976C402.676 395.968 403.52 395.278 403.924 394.411C404.032 394.196 404.1 393.97 404.137 393.749C404.202 393.29 404.081 392.822 403.816 392.449C403.299 391.708 402.189 391.499 401.445 392.048C400.701 392.597 400.482 393.813 401.051 394.524C401.742 395.41 403.401 394.996 403.71 393.868C404.019 392.741 402.808 391.56 401.757 391.972C401.265 392.164 400.904 392.596 400.609 393.048C400.254 393.606 400.003 394.395 400.407 394.887C400.81 395.378 401.853 394.702 401.432 394.221" stroke="#1D1D1B" stroke-width="1.5" stroke-miterlimit="10"/>
<path d="M431.838 397.316C430.958 397.207 429.979 397.67 429.592 398.527C429.205 399.384 429.581 400.546 430.41 400.825C431.744 401.256 432.892 399.407 432.768 397.934C432.737 397.554 432.63 397.136 432.315 396.98C432.128 396.878 431.903 396.903 431.705 396.936C430.414 397.183 429.296 398.547 429.467 399.91C429.639 401.274 431.296 402.172 432.408 401.408C433.521 400.645 433.251 398.449 431.964 398.249" stroke="#1D1D1B" stroke-width="1.5" stroke-miterlimit="10"/>
<path d="M419.087 408.938C419.846 411.049 417.51 415.028 415.399 414.581C412.592 413.988 409.594 408.906 411.513 406.563C412.83 404.919 418.397 406.987 419.087 408.938Z" fill="#1D1D1B"/>
<path d="M408.572 421.662C408.866 422.615 409.169 423.585 409.463 424.538C409.9 425.935 410.497 427.519 411.849 427.939C412.501 428.134 413.205 428.005 413.888 427.854C416.556 427.217 419.124 426.041 421.418 424.427" stroke="#1D1D1B" stroke-width="1.5" stroke-miterlimit="10"/>
<path d="M306.584 396.721C305.257 395.105 303.913 393.498 302.587 391.881C301.887 391.023 301.148 390.153 300.158 389.687C299.243 389.259 298.201 389.209 297.198 389.172C294.888 389.098 292.595 389.013 290.299 388.943C289.079 388.903 287.86 388.862 286.687 388.572C285.363 388.253 284.128 387.636 282.906 387.024C280.929 386.03 278.939 385.033 276.962 384.04" stroke="#1D1D1B" stroke-width="1.5" stroke-miterlimit="10"/>
<path d="M276.889 383.8C270.919 380.129 264.237 376.322 257.319 377.848C247.28 380.077 241.51 392.477 231.669 395.691C225.969 397.551 219.959 395.999 214.089 395.477C208.215 394.969 203.392 393.71 199.989 398.929L197.92 400.857C192.868 406.941 190.784 415.596 192.543 423.271C192.911 424.895 193.479 426.532 194.636 427.65C195.793 428.768 197.662 429.204 199.014 428.266L202.194 425.389C203.523 423.949 204.441 422.14 205.739 420.66C207.149 419.044 208.954 417.902 210.765 416.838C212.488 415.825 214.295 414.869 216.24 414.71C218.185 414.551 218.766 414.015 219.548 415.855L220.474 417.213C221.535 418.071 222.187 419.378 223.149 420.376C224.776 422.052 227.203 422.655 229.511 422.543C231.823 422.417 234.092 421.66 236.308 420.888" stroke="#1D1D1B" stroke-width="1.5" stroke-miterlimit="10"/>
<path d="M266.013 453.079C267.1 454.578 269.161 454.902 270.978 454.689C272.794 454.477 274.597 453.827 276.416 453.847C279.277 453.87 281.911 455.523 283.805 457.711C285.696 459.914 286.969 462.626 288.177 465.319C289.942 469.245 291.91 473.508 295.672 475.314C297.102 476.005 298.7 476.282 300.16 476.92C301.616 477.572 303.008 478.73 303.28 480.386" stroke="#1D1D1B" stroke-width="1.5" stroke-miterlimit="10"/>
<path d="M289.416 468.004C287.187 471.336 283.627 475.967 281.394 479.313C279.382 482.308 277.379 485.321 275.768 488.575C274.053 492.03 273.968 494.151 271.536 497.097L270.235 499.363C267.797 501.798 267.509 505.711 267.715 509.185C267.925 512.644 268.948 514.742 267.606 517.968L267.142 519.759C266.271 521.506 266.385 523.933 264.773 524.963C263.857 525.554 262.685 525.404 261.726 524.978C260.768 524.552 259.925 523.883 258.992 523.418C257.335 522.613 255.409 522.469 253.777 521.579C252.493 520.886 251.468 519.714 250.881 518.334C250.381 517.15 249.416 516.599 250.261 515.616L251.129 514.07C253.674 507.699 256.205 501.324 258.75 494.952C260.442 490.703 262.13 486.469 263.729 482.192C266.944 473.582 269.82 464.654 270.154 455.506" stroke="#1D1D1B" stroke-width="1.5" stroke-miterlimit="10"/>
<path d="M257.626 422.886C258.923 425.668 260.206 428.445 261.503 431.226C262.709 433.826 263.943 436.527 263.979 439.456L263.585 446.239C263.312 449.184 264.635 451.973 264.773 454.901C264.927 458.545 263.248 462.026 261.615 465.304C259.201 470.124 257.934 472.663 255.534 477.487L254.255 479.822C251.896 485.43 249.523 491.035 247.167 496.629C246.369 498.52 245.562 500.441 244.359 502.088C242.775 504.284 240.513 505.985 239.431 508.486C238.739 510.07 238.598 511.85 238.46 513.569C238.284 515.801 238.108 518.033 237.932 520.266L237.741 522.355C237.038 525.526 236.791 525.482 235.622 528.514C234.869 530.45 233.874 532.514 232.075 533.396C230.411 534.21 228.477 533.801 226.778 533.185C223.479 531.965 220.911 531.397 219.958 527.854L219.13 525.877C217.451 522.147 218.032 517.69 218.626 513.529C219.156 509.92 219.686 506.312 220.198 502.713C220.748 498.941 221.311 495.126 222.565 491.518C223.623 488.515 225.152 485.684 226.263 482.697C227.43 479.573 228.119 476.305 228.803 473.051C229.784 468.42 230.765 463.788 231.746 459.157C232.539 455.395 233.343 451.452 232.424 447.795C231.997 446.077 231.2 444.48 230.989 442.718C230.185 436.209 237.283 429.92 235.261 423.756" stroke="#1D1D1B" stroke-width="1.5" stroke-miterlimit="10"/>
<path d="M369.618 511.809C367.568 514.592 366.977 518.213 366.206 521.61C363.653 532.75 358.261 543.456 358.263 554.821L358.034 556.018C357.514 558.24 358.16 560.534 358.993 562.589C359.826 564.645 360.88 566.643 361.225 568.877C361.483 570.483 361.344 572.156 361.174 573.788C361.048 574.985 360.86 576.241 360.107 577.158L357.454 580.023C352.633 582.239 346.747 584.383 342.585 581.253C341.449 580.404 340.582 579.233 339.799 578.026C338.387 575.874 337.139 573.462 337.053 570.797C336.959 568.159 338.01 565.617 338.689 563.057C340.556 556.097 339.768 548.759 338.693 541.705C338.41 539.845 338.1 537.977 338.205 536.078C338.408 532.495 340.055 529.175 341.325 525.803C343.099 521.085 344.16 516.091 344.456 511.085" stroke="#1D1D1B" stroke-width="1.5" stroke-miterlimit="10"/>
<path d="M398.547 503.967C395.395 507.917 392.569 512.274 391.035 517.157C390.317 519.459 389.882 521.83 389.177 524.136C388.315 526.919 387.69 528.183 386.416 530.797L385.444 532.59C383.515 535.842 383.21 539.811 383.371 543.58C383.536 547.335 384.103 551.103 383.676 554.85C383.259 558.616 383.022 562.745 379.916 564.702L378.498 564.694C375.506 564.818 372.442 564.41 369.841 562.936C367.24 561.463 365.163 558.819 364.807 555.701C364.624 554.087 364.9 552.44 365.167 550.822C366.558 542.546 367.936 534.266 369.327 525.99C369.929 522.434 370.533 518.817 371.883 515.469" stroke="#1D1D1B" stroke-width="1.5" stroke-miterlimit="10"/>
<path d="M420.464 452.967C418.051 457.495 415.976 462.2 414.256 467.027C413.88 468.088 413.505 469.196 413.59 470.317C413.648 471.137 413.94 471.904 414.06 472.712C414.552 475.762 412.725 478.72 411.044 481.335C409.363 483.951 407.657 487.038 408.386 490.02" stroke="#1D1D1B" stroke-width="1.5" stroke-miterlimit="10"/>
<path d="M316.946 438.9C316.569 438.417 314.881 437.618 314.288 437.471C313.106 437.21 311.872 437.798 310.853 438.543C310.148 439.057 309.493 439.649 308.901 440.32C307.267 442.147 306.158 444.548 306.069 447.023C305.997 449.487 307.043 451.993 308.98 453.313C308.98 453.313 310.302 454.172 311.969 453.637" stroke="#1D1D1B" stroke-width="1.5" stroke-miterlimit="10"/>
<path d="M313.751 447.685C312.615 451.189 311.053 456.018 309.935 459.512" stroke="#1D1D1B" stroke-width="1.5" stroke-miterlimit="10"/>
<path d="M310.72 446.438C312.621 447.393 315.866 448.411 317.967 448.747" stroke="#1D1D1B" stroke-width="1.5" stroke-miterlimit="10"/>
<path d="M322.187 445.779C321.325 447.883 320.468 449.973 319.606 452.077C319.225 453.013 318.835 453.977 318.776 454.994C318.736 456.001 319.093 457.081 319.916 457.574C320.619 457.985 321.518 457.884 322.255 457.502C322.992 457.121 323.603 456.485 324.133 455.826C326.108 453.391 327.413 450.385 327.857 447.26" stroke="#1D1D1B" stroke-width="1.5" stroke-miterlimit="10"/>
<path d="M332.984 448.084C331.61 452.382 330.077 456.632 328.406 460.81" stroke="#1D1D1B" stroke-width="1.5" stroke-miterlimit="10"/>
<path d="M334.091 463.208C336.743 463.833 340.264 465.427 341.991 459.66C342.432 458.186 342.448 456.632 342.394 455.118C342.363 454.352 342.34 453.558 342.088 452.85C341.603 451.469 340.271 450.499 338.863 450.51L338.193 451.297C336.964 454.82 335.723 458.339 334.49 461.877C334.562 461.682 334.644 461.506 334.717 461.312L334.091 463.208Z" stroke="#1D1D1B" stroke-width="1.5" stroke-miterlimit="10"/>
<path d="M347.651 460.059C349.542 460.856 352.04 461.898 353.948 462.685" stroke="#1D1D1B" stroke-width="1.5" stroke-miterlimit="10"/>
<path d="M351.652 472.387C349.526 471.457 347.382 470.537 345.256 469.607L344.877 467.873C344.804 468.067 344.95 467.678 344.877 467.873C346.282 463.615 347.318 459.865 348.377 455.504C348.642 454.425 349.386 452.811 349.386 452.811C351.608 453.229 353.784 453.895 355.87 454.767" stroke="#1D1D1B" stroke-width="1.5" stroke-miterlimit="10"/>
<path d="M278.84 328.849C293.39 361.876 311.349 393.145 332.289 421.955" stroke="#1D1D1B" stroke-width="1.5" stroke-miterlimit="10"/>
<path d="M278.737 327.982C282.031 327.625 285.303 326.906 288.577 326.373C299.103 324.646 309.834 324.802 320.195 326.822" stroke="#1D1D1B" stroke-width="1.5" stroke-miterlimit="10"/>
<path d="M321.015 327.084C325.722 344.844 331.731 362.175 338.986 378.876C342.689 387.411 346.725 395.799 349.576 404.712C351.495 410.736 352.865 416.998 353.645 423.346" stroke="#1D1D1B" stroke-width="1.5" stroke-miterlimit="10"/>
<path d="M282.816 334.052C295.534 333.135 308.28 333.091 320.953 333.92" stroke="#1D1D1B" stroke-width="1.5" stroke-miterlimit="10"/>
<path d="M267.78 304.97C270.284 308.607 272.311 312.579 274.333 316.566C275.152 318.185 275.971 319.805 276.79 321.424C278.002 323.809 279.201 326.191 280.379 328.597C280.483 328.829 280.667 329.085 280.914 329.035C281.151 328.967 280.955 328.461 280.817 328.682" stroke="#1D1D1B" stroke-width="1.5" stroke-miterlimit="10"/>
<path d="M320.626 328.187C319.887 325.527 318.222 323.299 316.685 321.079C312.406 314.857 308.888 308.076 305.375 301.327" stroke="#1D1D1B" stroke-width="1.5" stroke-miterlimit="10"/>
<path d="M269.014 304.383C272.241 305.118 275.508 303.255 278.812 302.715C281.02 302.357 283.235 302.604 285.444 302.725C291.833 303.062 298.292 302.34 304.531 300.565" stroke="#1D1D1B" stroke-width="1.5" stroke-miterlimit="10"/>
<path d="M334.509 486.152C334.509 486.152 333.479 491.093 333.707 491.346C333.935 491.6 334.285 491.689 334.621 491.728C337.412 492.131 340.448 490.554 341.899 487.932C343.351 485.309 343.149 481.821 341.404 479.523C340.188 477.924 338.78 476.576 337.059 477.682L334.522 486.156L334.509 486.152Z" stroke="#1D1D1B" stroke-width="1.5" stroke-miterlimit="10"/>
<path d="M349.154 481.165C347.03 482.938 345.925 485.71 345.075 488.405C344.862 489.067 344.663 489.779 344.826 490.446C345.109 491.534 346.259 492.048 347.295 492.312C348.261 492.57 349.243 492.725 350.242 492.824C350.861 492.885 351.492 492.905 352.09 492.698C353.172 492.327 353.958 491.25 354.288 490.098C354.618 488.946 354.577 487.729 354.479 486.557C354.371 485.321 354.205 484.036 353.557 483.008C352.908 481.98 352.48 481.235 350.901 480.993L349.154 481.165Z" stroke="#1D1D1B" stroke-width="1.5" stroke-miterlimit="10"/>
<path d="M364.343 482.979C362.677 481.77 360.511 483.345 359.984 484.33C359.099 485.979 358.329 487.679 357.698 489.451C357.138 490.981 356.686 492.637 356.979 494.223C357.092 494.812 357.324 495.391 357.77 495.741C358.452 496.269 359.422 496.127 360.23 495.798C362.141 495.027 363.746 493.392 364.534 491.389C363.705 494.013 362.916 496.648 362.184 499.286" stroke="#1D1D1B" stroke-width="1.5" stroke-miterlimit="10"/>
<path d="M362.055 488.781C363.57 490.639 365.487 492.124 367.618 493.086" stroke="#1D1D1B" stroke-width="1.5" stroke-miterlimit="10"/>
<g filter="url(#filter1_d_219_152)">
<rect x="14" y="50.2766" width="317" height="500" rx="14.0178" transform="rotate(-9.12572 14 50.2766)" fill="white"/>
</g>
<path d="M60.6388 90.8547L53.6089 91.984L51.5757 79.3262L50.1341 79.5578L52.3863 93.5781L60.8577 92.2173L60.6388 90.8547ZM66.5042 91.5533C69.3477 91.0965 70.3789 89.0673 70.0205 86.8359L69.0181 80.5959L67.6161 80.8211L68.6026 86.9624C68.8944 88.7791 68.1045 90.0404 66.3075 90.329C64.5105 90.6177 63.3653 89.6673 63.0735 87.8506L62.087 81.7093L60.6849 81.9345L61.6873 88.1745C62.0457 90.4059 63.6606 92.0101 66.5042 91.5533ZM72.0176 85.2795C72.4586 88.0243 74.7571 90.2276 77.8179 89.7359C80.5429 89.2982 81.8309 87.2277 81.9054 85.1699L80.4836 85.3982C80.3195 87.0249 79.3328 88.1962 77.6149 88.4721C75.5019 88.8115 73.8105 87.3615 73.4394 85.0511C73.0651 82.7209 74.2173 80.8141 76.3302 80.4747C78.0482 80.1987 79.3521 81.0021 80.0174 82.4955L81.4391 82.2671C80.7238 80.3361 78.8522 78.7731 76.1272 79.2109C73.0664 79.7025 71.5736 82.5149 72.0176 85.2795ZM83.2723 75.7539C83.845 75.6619 84.2159 75.1972 84.124 74.6245C84.0288 74.0321 83.5278 73.6872 82.9551 73.7792C82.3627 73.8744 82.0146 74.3557 82.1098 74.9481C82.2018 75.5207 82.6799 75.849 83.2723 75.7539ZM84.5756 88.4073L85.9777 88.1821L84.3631 78.131L82.9611 78.3562L84.5756 88.4073ZM96.5685 76.1704L95.2257 76.3861L95.5239 78.2423C94.6266 77.0697 93.213 76.4663 91.3765 76.7613C88.296 77.2561 87.0401 80.0304 87.4842 82.795C87.9283 85.5596 89.9867 87.7812 93.0672 87.2864C94.9037 86.9914 96.0572 85.9756 96.5421 84.581L96.8403 86.4372L98.1831 86.2215L96.5685 76.1704ZM88.906 82.5666C88.5539 80.3747 89.6049 78.3423 91.856 77.9807C94.1071 77.6191 95.6825 79.2296 96.0346 81.4215C96.3867 83.6134 95.3918 85.6166 93.1407 85.9782C90.8895 86.3398 89.2581 84.7585 88.906 82.5666ZM100.782 83.9L100.399 88.0735L101.643 87.8737L102.44 83.6335L100.782 83.9ZM108.602 78.4102L109.905 78.2009C110.067 77.4456 110.907 76.1156 112.605 75.8428C114.639 75.5161 116.063 76.6851 116.373 78.6203C116.713 80.7332 115.618 82.3675 113.722 82.672C111.669 83.0019 110.505 81.8114 110.063 80.4442L108.582 80.6821C109.225 83.05 111.19 84.436 113.935 83.9951C116.7 83.551 118.269 81.0909 117.835 78.3856C117.438 75.9172 115.48 74.0644 112.636 74.5212C110.799 74.8162 109.98 76.0214 109.897 76.1359L109.781 71.3742L115.882 70.394L115.664 69.0315L108.436 70.1925L108.602 78.4102ZM119.7 76.6275L121.003 76.4181C121.166 75.6628 122.005 74.3328 123.704 74.06C125.737 73.7333 127.161 74.9023 127.472 76.8375C127.811 78.9504 126.716 80.5847 124.821 80.8892C122.767 81.2191 121.604 80.0286 121.161 78.6615L119.68 78.8994C120.324 81.2673 122.289 82.6532 125.033 82.2123C127.798 81.7682 129.368 79.3081 128.933 76.6028C128.537 74.1344 126.578 72.2816 123.734 72.7384C121.898 73.0334 121.079 74.2386 120.996 74.3532L120.879 69.5914L126.981 68.6113L126.762 67.2487L119.535 68.4097L119.7 76.6275Z" fill="black"/>
<path d="M55.5844 101.018C55.7728 102.191 56.8696 102.89 58.0425 102.702C59.3221 102.496 60.1035 101.459 59.9037 100.215C59.7153 99.042 58.6725 98.2251 57.5351 98.4078C56.22 98.619 55.3846 99.7741 55.5844 101.018ZM60.4287 107.569C60.3259 106.929 60.2415 106.177 60.2441 105.739L60.1204 105.649L55.4823 108.327L55.4994 108.434L56.7726 109.323C57.1026 109.562 57.3133 109.965 57.4161 110.605L59.2375 121.944C59.3288 122.512 59.2393 122.636 58.3678 122.886L57.8461 123.042L57.8861 123.291L64.3551 122.252L64.3152 122.003L63.7706 122.018C62.8648 122.054 62.7411 121.964 62.6497 121.396L60.4287 107.569ZM73.467 118.09C73.7354 119.761 72.735 120.796 71.3843 121.013C69.2517 121.356 67.2772 119.959 65.3644 117.131L65.0559 117.254C65.2856 118.456 65.9538 120.573 66.3853 121.671C67.7804 121.957 69.3487 121.96 70.8771 121.715C74.1472 121.189 76.546 118.872 76.0721 115.921C75.7295 113.789 74.5173 112.598 70.6799 110.954C68.6432 110.078 67.3929 109.331 67.1417 107.767C66.9475 106.558 67.4871 105.378 69.1577 105.109C70.4373 104.904 71.9365 105.611 73.6684 107.994L73.9769 107.872C73.8684 107.197 73.3894 105.122 73.1971 104.606C72.4646 104.359 70.9801 104.197 69.3806 104.454C66.1816 104.967 64.1084 107.269 64.5252 109.864C64.8792 112.068 66.417 113.243 69.5575 114.634C71.836 115.654 73.2044 116.455 73.467 118.09ZM85.9564 104.015C86.9872 103.85 87.8389 103.931 88.4578 104.379C88.9941 104.767 89.3513 105.402 89.5112 106.397L90.0593 109.81L87.7197 111.134C85.1782 112.563 84.0071 113.444 83.4999 114.145C83.0524 114.764 82.9006 115.408 83.0319 116.225C83.2889 117.825 84.807 119.331 86.7975 119.012C88.4325 118.749 89.2837 117.919 90.4276 116.642L91.0116 115.965L91.1239 115.983C91.6525 117.685 93.1472 118.137 94.3202 117.949C95.8486 117.703 97.0534 116.124 97.3784 115.197L97.249 115.072C96.9036 115.419 96.5 115.63 96.1445 115.687C95.718 115.755 95.2686 115.682 94.9386 115.443C94.526 115.145 94.2157 114.575 94.0787 113.722L92.7655 105.547C92.4743 103.734 92.0085 102.423 91.0596 101.737C90.3583 101.23 89.3828 101.058 88.0321 101.275C86.3615 101.544 83.886 103.837 82.5732 105.652C81.9765 106.477 81.6115 107.156 81.6743 107.547C81.7714 108.151 82.1611 108.307 82.6943 108.222C83.5118 108.09 85.2459 107.083 85.2002 106.798L84.0814 104.827C84.4026 104.556 85.0322 104.164 85.9564 104.015ZM90.99 115.603C90.4429 116.056 89.9795 116.349 89.162 116.48C87.9179 116.68 86.6321 115.939 86.3808 114.375C86.2723 113.7 86.4355 113.126 86.7935 112.631C87.4499 111.724 88.7619 111.039 90.1336 110.272L90.99 115.603ZM99.2819 92.8686C99.1792 92.2288 99.0948 91.4766 99.0974 91.0387L98.9736 90.9492L94.3356 93.6267L94.3527 93.7333L95.6259 94.6226C95.9559 94.8613 96.1666 95.265 96.2694 95.9048L99.4154 115.49C99.5067 116.058 99.4172 116.182 98.5457 116.432L98.024 116.588L98.064 116.837L104.533 115.798L104.493 115.549L103.948 115.564C103.043 115.6 102.919 115.51 102.828 114.942L99.2819 92.8686ZM121.326 113.83L121.753 113.761L125.046 98.1735C125.32 96.9263 125.878 96.5449 126.626 96.206L127.344 95.9084L127.304 95.6596L121.617 96.5731L121.657 96.8219L122.426 96.8442C123.521 96.8506 123.791 97.1718 123.843 97.4917C123.9 97.8472 123.947 98.824 123.507 101.301L122.241 108.177L122.063 108.206L117.637 99.0355C117.426 98.6318 117.357 98.4242 117.328 98.2465C117.271 97.8911 117.503 97.7445 117.852 97.6518L119.322 97.2698L119.271 96.9499L111.309 98.2289L111.36 98.5488L112.485 98.514C113.213 98.5064 113.483 98.8276 114.057 99.9022L114.789 101.28L113.213 109.627L113.035 109.656L108.395 100.52C108.185 100.116 108.115 99.9087 108.086 99.731C108.029 99.3756 108.261 99.229 108.611 99.1363L110.081 98.7544L110.029 98.4345L102.067 99.7134L102.119 100.033L103.244 99.9985C103.93 99.9611 104.206 100.318 104.816 101.387L112.298 115.28L112.76 115.206L115.321 102.324L121.326 113.83ZM131.805 96.6502C132.836 96.4846 133.688 96.5665 134.307 97.0141C134.843 97.4019 135.2 98.0373 135.36 99.0325L135.908 102.445L133.569 103.769C131.027 105.198 129.856 106.079 129.349 106.78C128.901 107.399 128.75 108.043 128.881 108.861C129.138 110.46 130.656 111.966 132.646 111.647C134.281 111.384 135.133 110.554 136.277 109.277L136.861 108.6L136.973 108.618C137.501 110.32 138.996 110.772 140.169 110.584C141.698 110.339 142.902 108.759 143.227 107.832L143.098 107.707C142.753 108.054 142.349 108.265 141.993 108.322C141.567 108.391 141.118 108.317 140.788 108.078C140.375 107.78 140.065 107.21 139.928 106.357L138.614 98.1816C138.323 96.3689 137.857 95.0582 136.909 94.372C136.207 93.8648 135.232 93.6933 133.881 93.9103C132.21 94.1786 129.735 96.4723 128.422 98.2875C127.825 99.1126 127.46 99.791 127.523 100.182C127.62 100.786 128.01 100.942 128.543 100.857C129.361 100.725 131.095 99.7177 131.049 99.4333L129.93 97.4618C130.252 97.1915 130.881 96.7986 131.805 96.6502ZM136.839 108.239C136.292 108.691 135.828 108.984 135.011 109.116C133.767 109.315 132.481 108.574 132.23 107.01C132.121 106.335 132.284 105.762 132.642 105.266C133.299 104.359 134.611 103.674 135.983 102.907L136.839 108.239ZM153.159 92.7825C153.216 93.1379 153.157 94.1319 152.784 96.1242L151.24 104.212L151.062 104.24L145.958 94.4861C145.794 94.1478 145.683 93.9104 145.655 93.7327C145.592 93.3417 145.824 93.1951 146.173 93.1025L147.644 92.7205L147.592 92.4006L139.488 93.7024L139.539 94.0223L140.664 93.9875C141.209 93.9729 141.633 94.3423 142.236 95.3757L150.04 108.999C149.54 111.339 148.784 114.122 148.109 114.231C148.002 114.248 147.783 114.247 147.671 114.228L146.134 113.965C145.909 113.928 145.649 113.897 145.436 113.931C144.796 114.034 144.24 114.889 144.412 115.955C144.549 116.808 145.253 117.789 146.533 117.583C147.706 117.395 149.096 116.515 150.931 108.418L154.286 93.4401C154.565 92.2285 155.189 91.8001 155.942 91.4968L156.66 91.1991L156.62 90.9503L150.933 91.8639L150.973 92.1127L151.743 92.135C152.843 92.1769 153.108 92.4626 153.159 92.7825ZM166.367 103.167C166.635 104.838 165.635 105.874 164.284 106.091C162.151 106.433 160.177 105.037 158.264 102.208L157.956 102.331C158.185 103.533 158.853 105.65 159.285 106.748C160.68 107.034 162.248 107.037 163.777 106.792C167.047 106.267 169.446 103.949 168.972 100.999C168.629 98.8659 167.417 97.6751 163.58 96.0309C161.543 95.1548 160.293 94.4077 160.041 92.8437C159.847 91.6352 160.387 90.4547 162.057 90.1863C163.337 89.9808 164.836 90.688 166.568 93.0715L166.877 92.949C166.768 92.2736 166.289 90.1994 166.097 89.6833C165.364 89.4364 163.88 89.2738 162.28 89.5307C159.081 90.0446 157.008 92.3465 157.425 94.9413C157.779 97.145 159.317 98.32 162.457 99.7115C164.736 100.731 166.104 101.532 166.367 103.167ZM180.745 104.03C182.664 103.721 184.08 102.546 186.064 100.368L186.217 100.416L186.416 101.879C186.46 102.382 186.506 102.667 186.503 103.105L186.627 103.194L191.925 100.994L191.85 100.751L190.931 100.935C190.048 101.113 189.878 100.958 189.741 100.105L187.919 88.7667C187.754 87.7359 187.568 86.125 187.529 85.6572L187.405 85.5677L182.183 86.8805L182.218 87.0938L183.643 87.3389C184.133 87.4424 184.227 87.5731 184.393 88.6039L186.197 99.8359C185.299 100.6 184.479 101.169 183.341 101.352C182.382 101.506 181.719 101.467 181.059 100.989C180.358 100.482 180.004 99.1899 179.707 97.3416L178.565 90.2328C178.4 89.202 178.22 87.6266 178.181 87.1588L178.057 87.0693L172.835 88.3821L172.869 88.5954L174.294 88.8405C174.785 88.944 174.879 89.0748 175.045 90.1056L176.672 100.236C177.003 102.297 177.39 102.891 178.298 103.548C178.958 104.025 179.963 104.155 180.745 104.03ZM204.791 91.6715C205.579 96.5766 203.843 99.8453 201.64 100.199C199.863 100.485 197.854 99.7864 197.131 95.0533L195.866 86.7245C196.347 86.319 197.233 85.7027 198.441 85.5086C200.965 85.1032 204.055 87.0863 204.791 91.6715ZM208.368 90.3313C207.58 85.4262 204.086 82.7423 200.496 83.319C199.145 83.536 197.428 84.6504 195.999 86.1926L195.845 86.1444L195.791 85.351C195.746 84.8477 195.698 84.0898 195.71 83.9419L195.545 83.8226L190.771 86.5585L190.788 86.6651L192.061 87.5544C192.391 87.7931 192.613 88.2679 192.705 88.8366L195.811 108.173C195.902 108.741 195.812 108.865 194.941 109.115L194.419 109.271L194.459 109.52L201.532 108.384L201.492 108.135L200.344 108.247C199.444 108.318 199.314 108.193 199.223 107.625L198.161 101.013C199.078 101.048 199.948 101.018 200.872 100.869C205.955 100.053 209.121 95.0231 208.368 90.3313ZM218.567 80.4161C217.217 80.6331 215.429 81.7589 213.999 83.3012L213.846 83.2529L212.464 74.6512C212.361 74.0114 212.277 73.2592 212.279 72.8213L212.156 72.7318L207.518 75.4093L207.535 75.5159L208.808 76.4052C209.138 76.6439 209.349 77.0476 209.451 77.6874L212.392 95.9927C212.535 96.8814 212.541 97.8283 212.496 98.4554L212.726 98.5278C212.816 98.4041 213.411 97.798 213.886 97.5758C215.09 98.0386 217.451 98.2064 218.944 97.9666C224.027 97.1501 227.193 92.1203 226.439 87.4284C225.651 82.5233 222.157 79.8394 218.567 80.4161ZM216.513 82.6057C219.036 82.2003 222.126 84.1834 222.863 88.7686C223.65 93.6738 221.915 96.9424 219.711 97.2964C217.934 97.5819 215.926 96.8835 215.202 92.1504L213.937 83.8216C214.419 83.4161 215.304 82.7998 216.513 82.6057ZM232.369 79.9857C233.055 79.0369 233.928 78.5685 234.71 78.4429C236.665 78.1289 238.222 80.103 238.362 82.341C238.107 82.5644 237.052 82.8068 234.996 83.1735L231.275 83.8441C231.291 82.1278 231.743 80.8521 232.369 79.9857ZM243.177 88.9328L243.018 88.849C242.037 90.4649 240.367 91.6447 238.164 91.9987C235.249 92.4669 232.228 90.9104 231.44 86.0053C231.343 85.401 231.293 84.8621 231.284 84.3531L241.781 82.7398C241.818 82.5152 241.832 82.1483 241.769 81.7573C241.369 79.2692 238.416 77.2277 234.72 77.8215C229.85 78.6038 227.502 83.2833 228.273 88.0818C228.964 92.3827 232.323 95.8174 237.122 95.0466C239.965 94.5898 242.477 92.2904 243.177 88.9328ZM247.983 77.988C249.014 77.8224 249.866 77.9044 250.485 78.3519C251.021 78.7398 251.378 79.3751 251.538 80.3704L252.086 83.7826L249.746 85.1065C247.205 86.5356 246.034 87.4165 245.527 88.1178C245.079 88.7367 244.927 89.3809 245.059 90.1984C245.316 91.7979 246.834 93.3042 248.824 92.9844C250.459 92.7218 251.311 91.8923 252.454 90.6147L253.038 89.9375L253.151 89.9559C253.679 91.6576 255.174 92.1103 256.347 91.9219C257.875 91.6764 259.08 90.0973 259.405 89.17L259.276 89.045C258.93 89.3921 258.527 89.6028 258.171 89.6599C257.745 89.7284 257.295 89.6548 256.965 89.4161C256.553 89.1177 256.242 88.5477 256.105 87.6947L254.792 79.5195C254.501 77.7067 254.035 76.396 253.086 75.7098C252.385 75.2026 251.41 75.0312 250.059 75.2481C248.388 75.5165 245.913 77.8101 244.6 79.6253C244.003 80.4504 243.638 81.1289 243.701 81.5199C243.798 82.1241 244.188 82.2803 244.721 82.1946C245.539 82.0633 247.273 81.0555 247.227 80.7712L246.108 78.7997C246.429 78.5293 247.059 78.1365 247.983 77.988ZM253.017 89.5764C252.47 90.0289 252.006 90.3221 251.189 90.4534C249.945 90.6532 248.659 89.9118 248.408 88.3478C248.299 87.6725 248.462 87.0994 248.82 86.6043C249.477 85.6967 250.789 85.012 252.16 84.2447L253.017 89.5764ZM266.148 90.384C268.494 90.0071 270.067 88.2231 270.788 86.3571L270.694 86.2263C269.843 87.0558 269.006 87.5185 267.975 87.6841C266.908 87.8553 266.057 87.7734 265.397 87.296C264.819 86.8784 264.403 86.1065 264.215 84.9336L262.782 76.0119L268.16 75.2209L268.244 73.0197L262.522 73.9389L262.13 70.137L261.935 70.0589C260.895 71.7573 259.236 74.1386 257.519 76.1645L257.628 76.8398L259.37 76.5601L260.974 86.548C261.225 88.112 261.793 89.151 262.701 89.8074C263.567 90.4339 264.726 90.6124 266.148 90.384Z" fill="black"/>
<g clip-path="url(#clip0_219_152)">
<path d="M172.806 332.096C172.233 330.151 171.464 328.461 171.271 326.715C170.837 322.698 170.915 318.624 170.323 314.632C169.934 311.974 169.087 306.086 168.784 304.122C168.405 301.686 170.36 295.683 168.534 288.647C163.522 268.422 162.181 247.632 160.899 226.659C161.555 226.566 162.132 226.374 162.678 226.448C163.54 226.558 164.417 226.988 164.843 225.777C164.861 225.737 164.988 225.754 165.057 225.718C167.318 224.56 173.782 225.993 175.365 228.112C175.791 228.677 175.971 229.492 176.088 230.219C176.497 232.762 176.04 235.332 177.075 237.911C177.938 240.033 177.812 242.575 178.066 244.932C178.246 246.592 178.241 248.108 179.786 249.45C180.925 250.435 181.291 252.326 181.943 253.836C182.285 254.651 182.419 255.561 182.796 256.358C185.099 261.267 187.439 266.17 189.788 271.048C191.409 274.414 192.988 277.825 194.803 281.086C195.26 281.92 196.58 282.254 197.474 282.868C201.951 286 207.13 287.081 212.362 287.955C213.254 288.097 214.223 287.792 215.145 287.657C216.261 287.49 217.395 287.357 218.481 287.084C218.911 286.977 219.448 286.605 219.609 286.219C220.999 282.89 223.927 282.022 227.016 280.992C229.444 280.18 231.616 278.551 233.848 277.212C234.074 277.076 234.039 276.473 233.99 276.704C235.169 276.006 235.956 275.494 236.791 275.049C238.795 273.995 240.885 273.088 242.805 271.897C246.712 269.468 251.142 268.67 255.433 267.322C257.715 266.608 259.683 264.863 261.801 263.591C265.833 261.167 269.929 258.833 273.891 256.283C275.613 255.174 276.987 253.525 278.703 252.38C280.385 251.252 282.283 250.463 284.081 249.516C286.082 248.449 288.357 247.686 289.996 246.218C291.818 244.571 294.029 244.03 296.073 243.068C298.601 241.879 302.222 243.931 303.27 246.359C303.883 247.776 305.375 248.791 306.43 250.025C307.974 251.827 307.613 254.22 305.788 255.693C302.249 258.56 298.849 261.59 295.265 264.402C292.871 266.277 290.245 267.867 287.771 269.63C287.135 270.08 286.704 270.796 286.118 271.324C282.6 274.548 279.095 277.782 275.517 280.94C273.549 282.685 271.383 284.2 269.432 285.967C265.334 289.681 261.546 293.78 257.196 297.162C253.355 300.152 249.813 303.466 246.136 306.628C240.58 316.725 244.178 324.979 244.188 327.822C244.199 331.062 244.309 334.299 244.419 337.536C244.456 338.536 245.018 339.713 244.656 340.479C243.703 342.508 244.86 343.142 246.612 343.842C245.933 347.267 248.103 352.658 247.244 356.05C247.032 356.892 232.687 367.171 232.738 367.721C224.647 371.704 207.202 375.128 207.313 376.439C206.464 377.259 204.935 377.641 203.066 377.444C197.344 376.848 192.245 374.636 187.214 372.003C185.629 371.177 185.892 369.88 185.58 368.788C184.913 366.411 184.34 366.018 181.955 366.401C181.156 366.529 179.669 366.011 179.437 365.414C178.106 362.076 177.413 358.46 175.819 355.263C174.46 352.525 174.913 349.31 172.731 346.704C171.445 345.196 171.972 333.012 172.806 332.096Z" fill="#002ACC"/>
<path d="M200.974 276.902C201.681 279.372 199.109 285.239 199.109 285.239C199.109 285.239 198.771 287.927 203.631 291.431C208.479 294.938 217.705 287.432 217.705 287.432L217.368 284.095C216.182 279.652 218.573 274.125 219.642 269.804C220.489 266.414 222.834 248.622 223.264 245.112L191.682 245.266C191.682 245.266 188.503 270.471 194.301 274.943" fill="#B79852"/>
<path d="M201.37 285.323C204.219 288.443 208.839 289.837 212.931 288.795C214.1 288.495 215.289 288.006 216.487 288.199" stroke="#080908" stroke-miterlimit="10" stroke-linejoin="round"/>
<path d="M173.675 229.811C173.293 228.668 173.597 227.315 174.439 226.447C175.035 225.829 175.846 225.463 176.691 225.315C177.198 225.221 177.706 225.214 178.204 225.146C179.505 224.974 180.78 224.484 181.851 223.728C181.975 223.646 182.084 223.554 182.163 223.429C182.352 223.138 182.25 222.732 182.01 222.473C181.771 222.225 181.427 222.094 181.091 222.012C180.018 221.749 178.903 221.842 177.801 221.944L176.477 221.97C178.805 219.534 181.529 217.47 184.503 215.886C185.179 215.529 185.868 215.182 186.388 214.627C186.907 214.072 187.383 213.25 187.083 212.54C186.98 212.284 186.244 211.88 185.766 212.069C182.997 213.159 179.939 214.297 177.523 216.039C179.385 213.404 182.412 211.912 185.191 210.273C185.43 210.135 185.667 209.985 185.843 209.771C186.256 209.245 186.097 208.413 185.614 207.957C185.119 207.502 184.39 207.371 183.736 207.476C183.07 207.583 182.462 207.892 181.879 208.209C178.975 209.768 176.251 211.672 173.783 213.857L174.559 210.962C176.119 207.37 176.899 206.971 179.627 204.161C180.095 203.676 180.615 203.046 180.391 202.423C180.101 201.625 178.952 201.661 178.172 201.985C176.127 202.86 174.613 204.643 173.464 206.542C172.304 208.442 171.429 210.496 170.187 212.348C169.565 213.267 168.848 214.14 167.977 214.827L167.17 215.602C166.14 213.594 166.172 211.241 165.874 209.003C165.577 206.765 164.779 204.347 162.813 203.247C162.118 202.862 161.073 202.769 160.659 203.444C160.433 203.815 160.495 204.278 160.553 204.715C161.02 208.007 161.484 211.286 161.951 214.577C162.186 216.192 162.41 217.82 162.4 219.462C162.399 220.456 162.3 221.465 162.528 222.422C163.073 224.732 165.398 226.756 164.705 229.016" stroke="#080908" stroke-miterlimit="10" stroke-linejoin="round"/>
<path d="M301.988 245.956C303.16 244.439 305.038 243.678 306.698 242.728C308.359 241.778 310.028 240.342 310.156 238.433C310.224 237.54 309.931 236.643 309.985 235.74C310.036 234.975 310.529 234.1 311.282 234.153C311.635 234.183 311.944 234.407 312.215 234.624C313.008 235.23 313.832 235.88 314.226 236.786C314.674 237.795 314.528 238.973 314.189 240.034C313.819 241.211 313.2 242.379 312.15 243.032" stroke="#080908" stroke-miterlimit="10" stroke-linejoin="round"/>
<path d="M315.08 238.002C316.737 235.873 318.415 233.715 320.547 232.068C321.088 231.646 321.659 231.256 322.249 230.913C322.466 230.791 322.707 230.666 322.942 230.74C323.087 230.791 323.191 230.899 323.273 231.022C323.937 231.909 323.938 233.151 323.559 234.193C323.18 235.236 322.451 236.11 321.755 236.955C320.268 238.759 318.77 240.565 317.284 242.369" stroke="#080908" stroke-miterlimit="10" stroke-linejoin="round"/>
<path d="M322.703 235.747C324.733 235.011 325.583 237.595 325.188 238.689C324.999 239.217 324.592 239.617 324.194 240.004C323.56 240.615 322.925 241.227 322.291 241.838C321.968 242.151 321.646 242.463 321.293 242.743C320.896 243.056 320.482 243.333 320.065 243.599C318.895 244.358 317.725 245.118 316.556 245.877" stroke="#080908" stroke-miterlimit="10" stroke-linejoin="round"/>
<path d="M301.166 254.137C302.523 255.162 304.275 255.551 305.976 255.551C307.678 255.551 309.357 255.182 311.012 254.817C312.211 254.55 313.41 254.282 314.621 254.013C315.677 253.782 316.767 253.532 317.634 252.896C318.188 252.484 318.653 251.664 318.196 251.141C317.499 250.359 315.413 252.135 314.849 251.256L314.398 250.459C317.11 249.328 319.901 248.147 321.919 246.021C323.299 244.558 326.446 242.35 325.058 240.896C324.206 240.002 324.206 240.002 324.206 240.002" stroke="#080908" stroke-miterlimit="10" stroke-linejoin="round"/>
<path d="M299.257 211.092C295.851 215.714 290.804 219.083 285.222 220.44C282.616 221.069 279.836 221.317 277.538 222.705C274.844 224.33 273.266 227.267 272.003 230.153C270.759 232.998 269.692 235.94 268.134 238.612C266.566 241.299 264.427 243.754 261.605 245.052C258.389 246.525 254.697 246.348 251.167 246.406C247.624 246.466 243.822 246.915 241.199 249.299C237.959 252.242 237.393 257.376 234.014 260.155C232.17 261.668 229.742 262.245 227.739 263.535C225.084 265.254 223.582 266.575 223.356 269.73L223.088 271.773C222.224 272.967 220.35 272.511 219.001 271.92C218.52 271.711 218.026 271.493 217.655 271.117C216.88 270.31 216.899 269.04 217.071 267.944C217.492 265.156 218.456 262.343 217.936 259.57C217.774 258.714 217.466 257.881 217.292 257.027C216.962 255.441 217.059 253.798 216.947 252.176C216.824 250.556 216.426 248.856 215.284 247.698L213.552 248.051C209.397 250.246 206.081 251.561 201.501 250.571C200.021 250.249 198.615 249.618 197.121 249.361C195.627 249.104 193.937 249.252 192.84 250.31C192.13 250.995 191.364 252.1 190.469 251.709C190.015 251.509 189.794 250.985 189.656 250.511C189.114 248.61 188.597 248.482 189.084 246.565L189.37 245.488C189.007 239.671 192.146 233.776 197.189 230.842C200.937 228.662 205.59 228.014 208.798 225.101C212.332 221.9 213.273 216.78 215.861 212.787C218.139 209.266 221.769 206.658 225.823 205.609C230.998 204.269 237.078 205.242 241.154 201.78C245.713 197.918 245.331 190.439 249.427 186.092C251.496 183.896 254.447 182.789 256.963 181.13C259.49 179.469 261.827 178.088 261.322 175.101L261.451 173.117C263.87 172.642 266.651 172.245 268.597 173.771C269.265 174.297 269.777 175.009 270.36 175.624C272.567 177.915 275.852 178.729 278.837 179.84C281.822 180.95 284.964 182.806 285.744 185.885C286.501 188.894 284.837 192.453 286.624 194.998C287.72 196.561 289.731 197.095 291.505 197.779C294.273 198.85 296.863 200.595 298.433 203.101C300.003 205.606 300.394 208.972 298.936 211.566" stroke="#080908" stroke-miterlimit="10" stroke-linejoin="round"/>
<path d="M185.227 374.633C190.284 392.118 186.388 408.457 191.866 425.316C193.541 429.171 197.973 434.111 202.912 429.678C209.06 423.808 216.53 417.814 220.138 408.576" stroke="#1D1D1B" stroke-miterlimit="10" stroke-linejoin="round"/>
<path d="M232.636 421.201C236.403 427.875 244.691 431.152 251.305 430.575C257.918 429.997 261.307 423.03 266.246 418.597C279.638 404.086 293.143 390.899 302.871 373.449" stroke="#1D1D1B" stroke-miterlimit="10" stroke-linejoin="round"/>
<path d="M247.312 353.07C247.169 368.26 243.387 385.923 252.48 398.462C252.48 398.462 253.803 398.349 255.124 398.223C268.856 387.682 279.716 374.733 291.166 361.814" stroke="#1D1D1B" stroke-miterlimit="10" stroke-linejoin="round"/>
<path d="M215.255 389.622C217.289 398.724 219.557 408.284 225.928 415.087C228.312 417.635 231.203 419.705 233.468 422.36" stroke="#1D1D1B" stroke-miterlimit="10" stroke-linejoin="round"/>
<path d="M290.635 361.912C291.381 361.916 292.129 361.933 292.862 362.014C295.731 362.323 298.472 363.771 300.362 365.952C302.253 368.132 303.27 371.062 303.162 373.949C303.032 373.758 302.89 373.57 302.76 373.38" stroke="#1D1D1B" stroke-miterlimit="10" stroke-linejoin="round"/>
<path d="M292.878 362.036C294.124 360.904 295.373 359.784 296.619 358.653" stroke="#1D1D1B" stroke-miterlimit="10" stroke-linejoin="round"/>
<path d="M303.318 371.824C304.325 370.905 305.342 369.971 306.35 369.051" stroke="#1D1D1B" stroke-miterlimit="10" stroke-linejoin="round"/>
<path d="M296.795 358.897C299.338 358.799 301.97 359.494 303.963 361.075C305.957 362.667 307.247 365.206 307.059 367.745" stroke="#1D1D1B" stroke-miterlimit="10" stroke-linejoin="round"/>
<path d="M296.729 357.715C298.802 355.159 301.333 352.976 304.155 351.293" stroke="#1D1D1B" stroke-miterlimit="10" stroke-linejoin="round"/>
<path d="M305.4 351.081C307.275 352.084 309.164 353.097 311.039 354.1C313.009 355.15 315.008 356.233 316.622 357.774C318.883 359.945 320.223 362.873 321.351 365.797C323.16 370.488 324.549 375.345 325.492 380.287C325.591 380.83 325.695 381.397 325.504 381.912C324.996 383.385 322.861 383.318 321.432 382.69C318.268 381.323 315.816 378.735 313.462 376.219C311.411 374.04 309.371 371.858 307.318 369.666" stroke="#1D1D1B" stroke-miterlimit="10" stroke-linejoin="round"/>
<path d="M304.303 351.133C304.876 350.445 305.533 349.817 306.241 349.281C306.529 349.061 306.843 348.849 307.194 348.793C307.581 348.73 307.973 348.854 308.342 348.981C312.086 350.255 315.967 351.607 318.827 354.34C320.529 355.967 321.775 358.003 322.957 360.024C324.021 361.853 325.05 363.7 325.883 365.641C327.576 369.605 328.393 373.92 328.277 378.224C328.265 378.686 328.242 379.162 328.102 379.607C327.621 381.174 325.925 381.981 324.412 382.609" stroke="#1D1D1B" stroke-miterlimit="10" stroke-linejoin="round"/>
<path d="M297.79 358.365C297.582 358.386 297.639 358.041 297.775 357.883C298.396 357.187 299.014 356.479 299.635 355.783C298.888 356.462 298.308 357.337 297.976 358.285C298.92 357.438 299.744 356.461 300.402 355.374C299.963 356.277 299.526 357.191 299.088 358.094C300.295 357.18 301.233 355.911 301.736 354.476C300.796 355.509 299.798 356.638 299.661 358.027C301.101 356.864 302.265 355.373 303.024 353.685C302.009 354.557 301.058 355.517 300.205 356.548C301.563 355.647 302.79 354.543 303.831 353.295C302.705 353.476 301.687 354.248 301.209 355.294C302.249 354.27 303.277 353.247 304.317 352.223C303.627 353.03 302.863 353.761 302.008 354.395C302.811 353.67 303.625 352.943 304.428 352.218C303.739 352.875 303.122 353.595 302.565 354.38C303.474 353.626 304.372 352.873 305.279 352.106C304.726 352.22 304.57 353.102 305.05 353.385C305.248 353.303 305.362 353.086 305.339 352.866C304.98 352.874 304.624 352.894 304.265 352.902C304.231 352.461 304.939 352.459 305.282 352.739C305.623 353.007 306.08 353.381 306.436 353.125C306.223 352.724 305.907 352.378 305.521 352.142C306.759 353.197 307.984 354.255 309.224 355.323C308.137 354.665 307.062 354.006 305.976 353.348C307.706 353.915 309.369 354.679 310.913 355.636C309.404 354.897 307.904 354.144 306.395 353.405C308.451 353.994 310.403 354.935 312.15 356.145C310.055 355.239 307.895 354.319 305.618 354.213C307.701 354.81 309.851 355.21 312.015 355.384C309.507 355.079 306.997 354.761 304.489 354.456C306.437 354.827 308.382 355.185 310.317 355.557C308.336 354.82 306.276 354.293 304.188 353.971C304.194 354.628 304.879 355.027 305.501 355.263C307.007 355.828 308.62 356.128 310.225 356.144C308.113 355.675 305.97 355.324 303.81 355.1C305.318 355.752 306.933 356.138 308.575 356.235C306.729 355.562 304.794 355.115 302.834 354.896C303.853 356.372 305.782 357.168 307.54 356.823C306.147 356.041 304.48 355.787 302.928 356.098C303.894 356.937 305.318 357.218 306.526 356.775C306.712 356.621 306.454 356.327 306.217 356.241C305.014 355.788 303.692 355.678 302.431 355.942C303.418 356.753 304.622 357.292 305.885 357.499C304.665 357.248 303.414 357.114 302.166 357.078C303.047 357.694 304.079 358.087 305.155 358.213C303.938 357.824 302.677 357.555 301.402 357.424C302.386 358.136 303.564 358.592 304.765 358.722C303.414 358.43 302.024 358.281 300.641 358.254C301.544 359.004 302.759 359.38 303.923 359.28C302.721 358.753 301.457 358.384 300.162 358.207C301.407 358.926 302.863 359.252 304.297 359.133C303.435 359.023 302.583 358.824 301.756 358.547C303.392 358.682 305.011 359.018 306.572 359.538C305.498 359.114 304.414 358.704 303.34 358.281C304.41 360.146 305.888 361.772 307.653 363.016C306.108 361.749 304.563 360.481 303.018 359.214C304.738 360.64 306.457 362.065 308.176 363.491C306.826 361.733 305.342 360.071 303.74 358.527C305.55 360.596 307.523 362.515 309.641 364.262C307.82 362.356 306.118 360.343 304.526 358.239C305.957 359.959 307.463 361.606 309.045 363.178C307.878 361.328 306.588 359.56 305.175 357.874C306.625 359.479 308.175 361.007 309.819 362.432C309.06 361.262 308.19 360.172 307.222 359.172C308.029 360.645 309.224 361.894 310.668 362.768C309.663 361.227 308.579 359.737 307.406 358.311C308.645 359.764 309.875 361.231 311.114 362.684C309.924 361.148 308.721 359.615 307.53 358.079C308.699 359.246 309.878 360.398 311.046 361.564C310.411 360.784 309.874 359.914 309.464 358.986C310.543 360.055 311.526 361.226 312.385 362.48C311.199 360.583 310.011 358.675 308.824 356.779C309.9 358.22 310.975 359.65 312.051 361.092C310.861 359.482 309.671 357.872 308.48 356.262C309.827 357.996 311.186 359.728 312.534 361.474C311.499 360.287 310.462 359.087 309.426 357.899C309.274 357.725 309.094 357.53 308.866 357.505C308.639 357.479 308.381 357.732 308.501 357.936" stroke="#1D1D1B" stroke-miterlimit="10" stroke-linejoin="round"/>
<path d="M306.596 357.596C307.057 357.373 307.563 357.279 308.065 357.311C307.927 358.227 306.654 358.73 305.927 358.151C306.447 358.217 306.965 358.27 307.485 358.336C307.572 357.874 307.48 357.38 307.23 356.985C307.373 357.795 307.602 358.602 307.91 359.36C308.093 359.803 308.535 360.316 308.94 360.052C309.064 359.97 309.131 359.847 309.184 359.715C309.693 358.552 309.163 357.035 308.038 356.446C308.191 357.241 308.678 357.957 309.355 358.383C309.52 358.481 309.721 358.573 309.893 358.483C310.144 358.343 310.083 357.968 309.978 357.699C309.348 356.173 308.39 354.774 307.2 353.624C307.595 354.691 308.572 355.515 309.687 355.733C308.926 355.172 308.152 354.601 307.391 354.04C308.182 354.559 309.085 354.923 310.017 355.084C308.867 354.573 307.772 353.942 306.747 353.2C307.962 354.346 309.428 355.204 311.012 355.707C309.524 354.642 308.098 353.492 306.736 352.282C308.244 353.245 309.752 354.207 311.259 355.158C309.986 354.269 308.599 353.523 307.155 352.96C309.77 354.391 312.211 356.135 314.419 358.129C313.099 357.024 311.777 355.907 310.457 354.802C312.398 356.143 314.26 357.607 316.039 359.172C314.435 358.076 312.981 356.757 311.736 355.268C313.599 356.198 315.255 357.535 316.545 359.153C315.49 358.23 314.448 357.304 313.395 356.392C315.222 357.565 316.934 358.942 318.461 360.485C315.968 359.581 313.782 358.032 311.612 356.505C312.996 358.32 314.658 359.928 316.531 361.23C314.501 359.569 312.399 358.006 310.237 356.527C311.634 358.576 313.569 360.265 315.797 361.373C313.715 359.856 311.662 358.286 309.643 356.697C311.914 359.239 314.198 361.779 316.471 364.333C315.047 361.655 313.142 359.228 310.88 357.206C312.966 360.759 315.167 364.256 317.469 367.688C315.602 365.342 313.966 362.81 312.582 360.15C314.485 363.26 316.275 366.439 317.937 369.675C317.617 368.608 317.06 367.617 316.305 366.782C316.439 367.692 316.769 368.583 317.254 369.362" stroke="#1D1D1B" stroke-miterlimit="10" stroke-linejoin="round"/>
<path d="M315.621 362.445C316.985 364.983 318.359 367.508 319.723 370.046C318.228 366.92 316.734 363.806 315.25 360.678C317.085 363.439 318.272 366.578 319.439 369.669C318.971 366.366 316.281 363.767 315.521 360.51C317.013 362.681 318.202 365.061 319.036 367.548C318.224 365.194 317.423 362.838 316.608 360.472C317.48 362.73 318.362 364.973 319.234 367.23C318.644 364.953 317.877 362.728 316.922 360.571C318.093 362.681 319.015 364.943 319.661 367.261C319.185 364.915 318.442 362.612 317.457 360.423C318.463 362.51 319.376 364.636 320.218 366.787C319.614 364.884 319.023 362.979 318.421 361.088C319.562 363.476 320.497 365.972 321.206 368.528C320.798 366.992 320.387 365.443 319.979 363.906C320.869 366.508 321.688 369.134 322.411 371.776C322.016 369.939 321.371 368.167 320.518 366.49C321.364 369.124 322.197 371.76 323.044 374.407C321.996 371.979 320.855 369.591 319.621 367.243C320.576 369.71 321.543 372.176 322.499 374.644C321.498 372.047 320.101 369.613 318.362 367.445C319.226 369.89 320.305 372.276 321.586 374.529C320.198 372.38 318.809 370.23 317.421 368.081C318.478 370.023 319.537 371.977 320.594 373.919C319.164 371.664 317.745 369.407 316.315 367.153C317.556 369.773 318.889 372.354 320.338 374.879C318.403 371.413 316.298 368.05 314.013 364.802C315.614 368.122 317.482 371.325 319.583 374.354C317.383 370.633 315.182 366.9 312.982 363.179C314.484 366.192 315.991 369.23 317.914 372.001C316.779 368.569 315.28 365.269 313.45 362.147C314.421 364.948 315.617 367.675 317.017 370.282C315.983 367.02 313.812 364.251 311.691 361.56C312.991 364.395 314.604 367.092 316.495 369.583C314.956 366.961 313.101 364.539 310.977 362.371C312.441 364.993 313.997 367.562 315.643 370.08C314.168 367.473 312.376 365.053 310.315 362.887C311.392 365.882 312.915 368.717 314.817 371.281C313.48 368.602 311.775 366.106 309.777 363.868C311.083 366.664 312.605 369.339 314.342 371.879C313.798 369.42 312.404 367.16 310.46 365.572C311.545 368.229 312.794 370.824 314.227 373.326C314.142 373.104 314.046 372.896 313.961 372.674" stroke="#1D1D1B" stroke-miterlimit="10" stroke-linejoin="round"/>
<path d="M308.493 363.378C309.343 365.341 310.194 367.316 311.043 369.279C310.131 366.767 308.772 364.414 307.062 362.354C308.187 364.409 309.324 366.462 310.451 368.53C309.323 366.611 308.206 364.679 307.078 362.761C307.676 364.553 308.452 366.292 309.376 367.945C308.88 366.484 308.138 365.112 307.198 363.897C307.58 365.19 308.21 366.405 309.036 367.453C308.586 366.891 308.212 366.268 307.944 365.603C308.235 366.799 308.513 367.984 308.804 369.179C308.728 368.396 308.483 367.641 308.087 366.959C307.884 367.625 307.823 368.331 307.896 369.015C307.759 368.627 307.527 368.266 307.221 367.98C307.241 368.337 307.333 368.683 307.495 368.992C307.347 368.767 307.199 368.543 307.065 368.328C307.063 368.776 307.185 369.228 307.409 369.615C307.378 369.346 307.345 369.066 307.315 368.797C307.462 369.171 307.839 369.434 308.236 369.432C308.439 369.225 308.427 368.842 308.186 368.657C308.664 369.699 309.269 370.682 309.984 371.573C309.632 370.313 309.018 369.12 308.206 368.083C309.527 370.43 311.042 372.671 312.731 374.759C312.803 374.201 312.493 373.667 312.194 373.194C311.335 371.791 310.464 370.391 309.606 368.988C311.475 371.272 313.343 373.543 315.212 375.826C313.584 373.032 311.738 370.36 309.729 367.826C311.778 370.763 314.028 373.557 316.462 376.185C315.471 373.959 314.157 371.884 312.569 370.04C314.355 372.884 316.276 375.643 318.32 378.321C316.683 376.708 314.907 375.242 313.022 373.942C314.465 375.661 316.04 377.271 317.709 378.767C316.339 377.509 314.956 376.24 313.586 374.982C314.844 376.084 316.101 377.187 317.347 378.291C316.721 377.795 316.147 377.241 315.605 376.645C317.193 377.719 318.71 378.892 320.154 380.15C319.744 379.297 319.182 378.505 318.494 377.858C319.418 378.89 320.353 379.92 321.276 380.951C320.04 380.057 318.742 379.247 317.377 378.559C318.738 379.918 320.182 381.177 321.712 382.347C320.464 381.231 319.177 380.096 317.608 379.528C318.995 380.585 320.522 381.433 322.149 382.054C321.795 381.551 321.455 381.059 321.101 380.557C321.493 381.066 322.084 381.418 322.719 381.502C322.267 380.084 321.424 378.779 320.297 377.792C321.067 379.109 321.953 380.371 322.914 381.558C322.347 379.575 321.675 377.633 320.884 375.723C321.411 377.154 322.044 378.543 322.768 379.88C322.645 378.645 322.47 377.406 322.225 376.191C322.681 377.558 323.135 378.914 323.591 380.282C323.352 379.028 323.101 377.777 322.863 376.523C323.218 377.733 323.574 378.943 323.932 380.165C323.596 378.306 323.262 376.459 322.926 374.6C323.482 376.361 324.026 378.125 324.583 379.886C324.142 378.069 323.703 376.264 323.262 374.447C323.672 375.995 324.082 377.544 324.493 379.093C324.247 378.648 324.002 378.203 323.756 377.758C323.782 378.152 323.82 378.543 323.846 378.936C323.165 378.251 322.534 377.495 321.983 376.689C322.609 378.116 323.248 379.542 323.877 380.981C323.409 379.23 322.74 377.536 321.876 375.949C321.543 375.344 321.129 374.702 320.457 374.537C321.017 376.397 321.885 378.171 323.019 379.74C322.687 378.601 322.224 377.495 321.635 376.459C321.613 377.556 321.812 378.642 322.211 379.659C321.905 378.292 321.812 376.866 321.937 375.479C322.089 376.039 322.112 376.644 321.992 377.209C321.896 377.697 320.988 377.607 320.982 377.111C320.977 376.615 321.895 376.529 321.987 377.024" stroke="#1D1D1B" stroke-miterlimit="10" stroke-linejoin="round"/>
<path d="M320.381 379.009C319.834 377.693 319.172 376.433 318.397 375.24" stroke="#1D1D1B" stroke-miterlimit="10" stroke-linejoin="round"/>
<path d="M316.638 373.026C317.924 375.006 319.221 376.971 320.508 378.951C318.789 375.674 316.292 372.808 313.299 370.643C314.5 373.096 315.954 375.421 317.641 377.573C317.96 377.546 318.013 377.103 317.964 376.8C317.455 373.553 315.49 370.751 313.495 368.152C315.447 370.41 317.248 372.804 318.88 375.312C317.883 373.124 316.955 370.901 316.097 368.654C316.916 371.205 318.092 373.65 319.57 375.896C320.015 374.334 319.606 372.562 318.518 371.358C318.876 373.586 319.537 375.765 320.474 377.813C320.586 376.963 320.519 376.08 320.251 375.265C320.564 376.594 320.828 377.93 321.046 379.287C320.671 378.266 320.286 377.26 319.911 376.239C319.956 377.139 319.866 378.048 319.657 378.913C319.228 378.175 318.856 377.403 318.532 376.622" stroke="#1D1D1B" stroke-miterlimit="10" stroke-linejoin="round"/>
<path d="M109.704 257.49C108.302 257.653 107.228 258.931 106.849 260.284C106.471 261.637 106.629 263.089 106.794 264.504C106.95 265.783 107.128 267.121 107.88 268.168C108.978 269.668 111.08 270.151 112.896 269.784C114.713 269.418 116.301 268.331 117.756 267.178C119.453 265.837 121.197 263.706 120.273 261.743C119.95 261.049 119.334 260.539 118.694 260.108C115.975 258.259 112.549 257.493 109.288 257.992" stroke="#1D1D1B" stroke-miterlimit="10" stroke-linejoin="round"/>
<path d="M124.262 237.562C122.641 241.462 121.02 245.362 119.398 249.262" stroke="#1D1D1B" stroke-miterlimit="10" stroke-linejoin="round"/>
<path d="M96.1644 243.48C96.4707 245.927 97.483 248.286 99.0321 250.199" stroke="#1D1D1B" stroke-miterlimit="10" stroke-linejoin="round"/>
<path d="M90.1408 273.862C91.7746 273.363 93.3394 272.59 94.7181 271.586" stroke="#1D1D1B" stroke-miterlimit="10" stroke-linejoin="round"/>
<path d="M109.38 282.609C109.233 284.943 109.089 287.29 108.942 289.624" stroke="#1D1D1B" stroke-miterlimit="10" stroke-linejoin="round"/>
<path d="M126.27 276.269C127.073 277.867 128.188 279.315 129.511 280.518" stroke="#1D1D1B" stroke-miterlimit="10" stroke-linejoin="round"/>
<path d="M133.306 262.084C134.991 262.757 136.816 263.06 138.629 262.98" stroke="#1D1D1B" stroke-miterlimit="10" stroke-linejoin="round"/>
</g>
<defs>
<filter id="filter0_d_219_152" x="82.4265" y="156.427" width="476.227" height="599.055" filterUnits="userSpaceOnUse" color-interpolation-filters="sRGB">
<feFlood flood-opacity="0" result="BackgroundImageFix"/>
<feColorMatrix in="SourceAlpha" type="matrix" values="0 0 0 0 0 0 0 0 0 0 0 0 0 0 0 0 0 0 127 0" result="hardAlpha"/>
<feOffset dx="2" dy="17"/>
<feGaussianBlur stdDeviation="9"/>
<feColorMatrix type="matrix" values="0 0 0 0 0.769141 0 0 0 0 0.769141 0 0 0 0 0.769141 0 0 0 0.35 0"/>
<feBlend mode="normal" in2="BackgroundImageFix" result="effect1_dropShadow_219_152"/>
<feBlend mode="normal" in="SourceGraphic" in2="effect1_dropShadow_219_152" result="shape"/>
</filter>
<filter id="filter1_d_219_152" x="0.0437012" y="1.0437" width="424.201" height="575.861" filterUnits="userSpaceOnUse" color-interpolation-filters="sRGB">
<feFlood flood-opacity="0" result="BackgroundImageFix"/>
<feColorMatrix in="SourceAlpha" type="matrix" values="0 0 0 0 0 0 0 0 0 0 0 0 0 0 0 0 0 0 127 0" result="hardAlpha"/>
<feOffset dx="2" dy="17"/>
<feGaussianBlur stdDeviation="9"/>
<feColorMatrix type="matrix" values="0 0 0 0 0.769141 0 0 0 0 0.769141 0 0 0 0 0.769141 0 0 0 0.35 0"/>
<feBlend mode="normal" in2="BackgroundImageFix" result="effect1_dropShadow_219_152"/>
<feBlend mode="normal" in="SourceGraphic" in2="effect1_dropShadow_219_152" result="shape"/>
</filter>
<clipPath id="clip0_219_152">
<rect width="266" height="282" fill="white" transform="translate(64.1924 187.86) rotate(-9.12572)"/>
</clipPath>
</defs>
</svg>
