<svg width="24" height="24" viewBox="0 0 24 24" fill="none" xmlns="http://www.w3.org/2000/svg">
<path d="M16 5.90328C14.4 5.90328 13.1 7.20328 13.1 8.70328V10.3033C13.1 10.6033 12.8 10.9033 12.5 10.9033C12.5 10.9033 12.5 10.9033 12.4 10.9033L10.8 10.7033C8.7 10.4033 6.8 9.50328 4.9 7.90328C4.3 11.2033 5.5 13.5033 8.3 15.3033L10.1 16.4033C10.4 16.6033 10.5 16.9033 10.3 17.2033C10.3 17.3033 10.2 17.3033 10.1 17.4033L8.5 18.6033C9.4 18.7033 10.3 18.6033 11.1 18.5033C15.8 17.6033 19 14.0033 19 8.20328C18.9 7.60328 17.9 5.90328 16 5.90328ZM11.1 8.80328C11.1 6.10328 13.4 3.90328 16.1 4.00328C17.4 4.00328 18.6 4.50328 19.5 5.50328C20.2 5.50328 20.8 5.70328 22.2 4.90328C21.8 6.40328 21.7 7.10328 20.9 8.10328C20.9 15.7033 16.2 19.5033 11.4 20.4033C8.1 21.1033 3.4 20.0033 2 18.6033C2.7 18.5033 5.5 18.2033 7.1 17.1033C5.7 16.2033 0.2 13.0033 3.8 4.30328C5.5 6.30328 7.2 7.60328 9 8.30328C10.3 8.70328 10.6 8.70328 11.1 8.80328Z" fill="black" stroke="black" stroke-width="0.25" stroke-miterlimit="10"/></svg>
